<svg width="443" height="461" viewBox="0 0 443 461" fill="none" xmlns="http://www.w3.org/2000/svg">
<path d="M432.938 62.176L433.262 47.3947L418.527 47.1515L407.31 57.7798L422.039 57.9817L421.68 72.8105L432.938 62.176Z" fill="#E81F76"/>
<path d="M321.319 183.667L317.787 179.022L313.22 182.469L312.409 188.449L316.976 185.002L320.496 189.659L321.319 183.667Z" fill="#E81F76"/>
<path d="M317.002 196.373L313.47 191.728L308.903 195.175L308.069 201.156L312.646 197.697L316.179 202.365L317.002 196.373Z" fill="#E81F76"/>
<path opacity="0.7" d="M186.966 251.933L182.397 248.286L178.829 252.77L179.49 258.764L183.071 254.291L187.64 257.938L186.966 251.933Z" fill="#E81F76"/>
<path opacity="0.8" d="M237.5 246.06L234.366 241.131L229.527 244.191L228.21 250.085L233.06 247.013L236.182 251.954L237.5 246.06Z" fill="#E81F76"/>
<path opacity="0.8" d="M233.538 233.566L228.296 230.962L225.769 236.096L227.695 241.819L230.234 236.696L235.475 239.277L233.538 233.566Z" fill="#E81F76"/>
<path opacity="0.7" d="M196.695 236.787L191.453 234.206L188.915 239.329L190.84 245.052L193.39 239.918L198.62 242.511L196.695 236.787Z" fill="#E81F76"/>
<path opacity="0.7" d="M206.444 242.621L203.95 237.317L198.784 239.758L196.733 245.423L201.923 243.004L204.405 248.297L206.444 242.621Z" fill="#E81F76"/>
<path opacity="0.7" d="M215.348 246.546L210.095 243.953L207.568 249.087L209.493 254.811L212.043 249.676L217.273 252.269L215.348 246.546Z" fill="#E81F76"/>
<path opacity="0.7" d="M232.89 267.298L229.744 262.357L224.918 265.429L223.588 271.312L228.438 268.239L231.561 273.181L232.89 267.298Z" fill="#E81F76"/>
<path opacity="0.7" d="M227.911 277.971L224.777 273.042L219.938 276.103L218.621 281.997L223.447 278.925L226.593 283.866L227.911 277.971Z" fill="#E81F76"/>
<path opacity="0.7" d="M225.499 257.412L222.365 252.483L217.539 255.554L216.222 261.448L221.048 258.377L224.194 263.317L225.499 257.412Z" fill="#E81F76"/>
<path opacity="0.5" d="M114.651 293.958L110.016 290.408L106.543 294.958L107.333 300.935L110.805 296.385L115.453 299.947L114.651 293.958Z" fill="#E81F76"/>
<path opacity="0.7" d="M220.785 234.089L215.555 231.496L213.004 236.607L214.929 242.331L217.48 237.219L222.722 239.824L220.785 234.089Z" fill="#E81F76"/>
<path opacity="0.7" d="M228.22 224.677L222.871 222.333L220.571 227.587L222.773 233.207L225.062 227.965L230.434 230.307L228.22 224.677Z" fill="#E81F76"/>
<path opacity="0.7" d="M234.945 215.034L229.487 212.905L227.412 218.233L229.845 223.773L231.92 218.446L237.365 220.563L234.945 215.034Z" fill="#E81F76"/>
<path opacity="0.8" d="M246.426 213.017L244.255 207.584L238.936 209.704L236.554 215.241L241.861 213.133L244.032 218.567L246.426 213.017Z" fill="#E81F76"/>
<path d="M278.353 205.601L276.194 200.179L270.876 202.299L268.493 207.837L273.811 205.716L275.972 211.162L278.353 205.601Z" fill="#E81F76"/>
<path d="M312.077 112.271L309.906 106.838L304.587 108.958L302.205 114.496L307.523 112.375L309.683 117.821L312.077 112.271Z" fill="#E81F76"/>
<path opacity="0.8" d="M249.345 202.866L247.174 197.433L241.855 199.553L239.472 205.09L244.78 202.982L246.951 208.416L249.345 202.866Z" fill="#E81F76"/>
<path opacity="0.7" d="M228.403 204.719L222.958 202.602L220.883 207.929L223.303 213.458L225.378 208.131L230.836 210.259L228.403 204.719Z" fill="#E81F76"/>
<path opacity="0.8" d="M237.614 205.687L233.47 201.557L229.442 205.614L229.451 211.657L233.491 207.587L237.646 211.705L237.614 205.687Z" fill="#E81F76"/>
<path opacity="0.8" d="M242.037 193.597L238.254 189.125L233.896 192.833L233.39 198.848L237.76 195.151L241.554 199.611L242.037 193.597Z" fill="#E81F76"/>
<path d="M303.931 194.127L302.962 188.367L297.307 189.32L293.814 194.234L299.458 193.293L300.426 199.053L303.931 194.127Z" fill="#E81F76"/>
<path opacity="0.7" d="M218.789 269.322L215.041 264.837L210.647 268.511L210.118 274.527L214.512 270.853L218.271 275.326L218.789 269.322Z" fill="#E81F76"/>
<path d="M316.026 162.33L312.278 157.845L307.896 161.53L307.354 167.535L311.749 163.861L315.508 168.333L316.026 162.33Z" fill="#E81F76"/>
<path d="M308.577 157.367L304.829 152.882L300.435 156.557L299.906 162.573L304.3 158.898L308.059 163.371L308.577 157.367Z" fill="#E81F76"/>
<path d="M289.439 170.009L285.68 165.537L281.309 169.21L280.779 175.226L285.161 171.54L288.909 176.025L289.439 170.009Z" fill="#E81F76"/>
<path opacity="0.7" d="M244.941 267.655L241.193 263.17L236.799 266.844L236.269 272.86L240.663 269.186L244.411 273.671L244.941 267.655Z" fill="#E81F76"/>
<path d="M265.556 156.442L259.84 155.2L258.629 160.81L261.885 165.874L263.108 160.276L268.824 161.518L265.556 156.442Z" fill="#E81F76"/>
<path d="M255.858 167.204L250.142 165.961L248.93 171.548L252.187 176.636L253.41 171.037L259.115 172.292L255.858 167.204Z" fill="#E81F76"/>
<path d="M254.878 177.035L249.162 175.793L247.939 181.391L251.207 186.467L252.419 180.881L258.135 182.123L254.878 177.035Z" fill="#E81F76"/>
<path d="M297.539 160.852L292.136 158.616L289.942 163.901L292.248 169.481L294.441 164.196L299.845 166.432L297.539 160.852Z" fill="#E81F76"/>
<path d="M287.902 158.228L284.142 153.732L279.76 157.418L279.23 163.434L283.612 159.748L287.36 164.233L287.902 158.228Z" fill="#E81F76"/>
<path d="M328.688 158.48L324.929 154.007L320.534 157.681L320.005 163.697L324.41 160.011L328.17 164.483L328.688 158.48Z" fill="#E81F76"/>
<path d="M266.33 175.148L262.57 170.652L258.188 174.338L257.648 180.366L262.041 176.668L265.789 181.153L266.33 175.148Z" fill="#E81F76"/>
<path opacity="0.4" d="M132.531 342.175L127.453 339.272L124.616 344.231L126.195 350.061L129.043 345.09L134.11 348.005L132.531 342.175Z" fill="#E81F76"/>
<path d="M291.712 123.126L289.967 117.547L284.493 119.253L281.705 124.596L287.169 122.902L288.901 128.469L291.712 123.126Z" fill="#E81F76"/>
<path d="M277.187 140.92L271.404 140.067L270.557 145.721L274.143 150.574L274.991 144.92L280.774 145.774L277.187 140.92Z" fill="#E81F76"/>
<path d="M294.294 147.535L288.511 146.681L287.664 152.335L291.274 157.188L292.109 151.522L297.88 152.388L294.294 147.535Z" fill="#E81F76"/>
<path d="M336.097 130.063L330.315 129.21L329.467 134.864L333.077 139.716L333.913 134.051L339.696 134.928L336.097 130.063Z" fill="#E81F76"/>
<path opacity="0.5" d="M151.569 267.639L146.502 264.724L143.654 269.695L145.233 275.525L148.081 270.554L153.148 273.469L151.569 267.639Z" fill="#E81F76"/>
<path opacity="0.8" d="M215.251 261.135L211.48 256.651L207.098 260.337L206.569 266.353L210.963 262.679L214.722 267.151L215.251 261.135Z" fill="#E81F76"/>
<path opacity="0.7" d="M174.936 258.26L173.561 252.574L168.003 253.932L164.858 259.078L170.428 257.731L171.803 263.417L174.936 258.26Z" fill="#E81F76"/>
<path opacity="0.8" d="M258.005 213.228L254.257 208.743L249.863 212.418L249.333 218.434L253.715 214.748L257.487 219.232L258.005 213.228Z" fill="#E81F76"/>
<path opacity="0.5" d="M162.249 276.405L157.182 273.49L154.333 278.461L155.912 284.291L158.761 279.32L163.827 282.212L162.249 276.405Z" fill="#E81F76"/>
<path opacity="0.5" d="M132.092 282.761L127.014 279.858L124.176 284.817L125.755 290.647L128.604 285.676L133.671 288.591L132.092 282.761Z" fill="#E81F76"/>
<path opacity="0.4" d="M133.837 328.661L128.759 325.758L125.91 330.729L127.5 336.547L130.349 331.576L135.416 334.491L133.837 328.661Z" fill="#E81F76"/>
<path d="M383.768 91.2134L380.031 86.7165L375.638 90.4142L375.109 96.4301L379.491 92.7445L383.25 97.2172L383.768 91.2134Z" fill="#E81F76"/>
<path d="M381.934 102.527L378.175 98.0548L373.792 101.717L373.251 107.745L377.656 104.059L381.404 108.543L381.934 102.527Z" fill="#E81F76"/>
<path opacity="0.5" d="M124.691 306.477L119.612 303.574L116.787 308.544L118.354 314.363L121.215 309.403L126.27 312.307L124.691 306.477Z" fill="#E81F76"/>
<path opacity="0.5" d="M152.087 311.997L150.62 306.338L145.065 307.789L142.028 313.013L147.57 311.55L149.061 317.209L152.087 311.997Z" fill="#E81F76"/>
<path opacity="0.5" d="M150.961 287.765L151.427 281.939L145.73 281.479L141.134 285.395L146.843 285.843L146.365 291.681L150.961 287.765Z" fill="#E81F76"/>
<path opacity="0.7" d="M174.588 215.252L169.412 212.528L166.742 217.597L168.53 223.373L171.21 218.291L176.363 221.016L174.588 215.252Z" fill="#E81F76"/>
<path opacity="0.4" d="M122.225 338.572L121.176 332.827L115.546 333.849L112.101 338.807L117.742 337.773L118.792 343.542L122.225 338.572Z" fill="#E81F76"/>
<path opacity="0.7" d="M209.351 237.682L210.358 231.929L204.711 230.953L199.771 234.414L205.407 235.402L204.412 241.167L209.351 237.682Z" fill="#E81F76"/>
<path opacity="0.5" d="M145.527 255.716L140.093 253.586L138.007 258.925L140.415 264.443L142.514 259.115L147.96 261.256L145.527 255.716Z" fill="#E81F76"/>
<path opacity="0.5" d="M131.554 254.638L126.119 252.508L124.033 257.847L126.454 263.376L128.529 258.049L133.986 260.178L131.554 254.638Z" fill="#E81F76"/>
<path opacity="0.7" d="M163.082 239.242L164.089 233.489L158.453 232.501L153.514 235.985L159.138 236.962L158.143 242.727L163.082 239.242Z" fill="#E81F76"/>
<path opacity="0.8" d="M247.359 247.739L242.424 244.609L239.36 249.448L240.66 255.335L243.736 250.508L248.672 253.638L247.359 247.739Z" fill="#E81F76"/>
<path d="M290.178 209.169L284.391 210.045L285.25 215.704L290.098 219.294L289.262 213.634L295.025 212.759L290.178 209.169Z" fill="#E81F76"/>
<path opacity="0.7" d="M215.892 219.83L210.105 220.706L210.964 226.365L215.812 229.955L214.964 224.284L220.739 223.42L215.892 219.83Z" fill="#E81F76"/>
<path d="M240.572 167.543L234.796 168.407L235.643 174.055L240.503 177.656L239.644 171.997L245.43 171.121L240.572 167.543Z" fill="#E81F76"/>
<path opacity="0.8" d="M255.561 240.367L250.614 237.225L247.538 242.053L248.851 247.952L251.927 243.124L256.862 246.254L255.561 240.367Z" fill="#E81F76"/>
<path opacity="0.8" d="M260.974 250.199L255.143 249.908L254.847 255.623L258.911 260.107L259.194 254.381L265.037 254.66L260.974 250.199Z" fill="#E81F76"/>
<path opacity="0.8" d="M249.822 256.843L244.898 253.701L241.822 258.529L243.135 264.427L246.199 259.588L251.146 262.73L249.822 256.843Z" fill="#E81F76"/>
<path d="M356.466 128.174L351.53 125.044L348.466 129.859L349.778 135.758L352.854 130.93L357.778 134.073L356.466 128.174Z" fill="#E81F76"/>
<path d="M312.794 206.433L307.859 203.303L304.783 208.131L306.083 214.018L309.159 209.19L314.107 212.332L312.794 206.433Z" fill="#E81F76"/>
<path d="M330.906 142.862L325.982 139.719L322.906 144.547L324.219 150.446L327.295 145.618L332.23 148.748L330.906 142.862Z" fill="#E81F76"/>
<path d="M309.24 145.619L304.293 142.478L301.229 147.317L302.541 153.215L305.617 148.364L310.54 151.507L309.24 145.619Z" fill="#E81F76"/>
<path d="M321.261 148.876L316.337 145.734L313.25 150.573L314.562 156.449L317.638 151.621L322.574 154.775L321.261 148.876Z" fill="#E81F76"/>
<path d="M305.735 130.396L300.788 127.255L297.724 132.094L299.024 137.981L302.089 133.165L307.036 136.284L305.735 130.396Z" fill="#E81F76"/>
<path d="M276.161 169.664L271.214 166.523L268.15 171.362L269.45 177.249L272.526 172.421L277.461 175.552L276.161 169.664Z" fill="#E81F76"/>
<path d="M341.096 118.957L336.161 115.826L333.108 120.653L334.409 126.541L337.485 121.713L342.42 124.843L341.096 118.957Z" fill="#E81F76"/>
<path d="M326.863 132.474L321.927 129.32L318.863 134.159L320.164 140.046L323.24 135.219L328.175 138.349L326.863 132.474Z" fill="#E81F76"/>
<path opacity="0.7" d="M177.587 250.27L178.818 244.566L173.232 243.354L168.144 246.611L173.742 247.834L172.511 253.538L177.587 250.27Z" fill="#E81F76"/>
<path opacity="0.7" d="M159.75 260.314L160.263 254.486L154.587 253.979L149.931 257.838L155.632 258.368L155.106 264.185L159.75 260.314Z" fill="#E81F76"/>
<path opacity="0.7" d="M150.127 245.208L146.379 240.723L141.985 244.398L141.443 250.402L145.85 246.739L149.586 251.236L150.127 245.208Z" fill="#E81F76"/>
<path opacity="0.7" d="M168.841 265.109L163.47 262.813L161.217 268.065L163.453 273.671L165.706 268.419L171.088 270.703L168.841 265.109Z" fill="#E81F76"/>
<path opacity="0.7" d="M236.73 254.621L230.917 253.92L230.247 259.602L233.981 264.345L234.663 258.65L240.452 259.352L236.73 254.621Z" fill="#E81F76"/>
<path opacity="0.7" d="M225.278 243.723L219.467 243.045L218.784 248.717L222.519 253.459L223.19 247.777L229.002 248.478L225.278 243.723Z" fill="#E81F76"/>
<path opacity="0.7" d="M192.835 266.014L188.567 261.993L184.647 266.152L184.82 272.188L188.751 268.017L192.995 272.039L192.835 266.014Z" fill="#E81F76"/>
<path opacity="0.4" d="M131.931 372.912L130.893 367.155L125.252 368.189L121.82 373.159L127.46 372.125L128.499 377.882L131.931 372.912Z" fill="#E81F76"/>
<path opacity="0.3" d="M109.741 373.317L107.237 368.048L102.061 370.525L100.046 376.201L105.211 373.736L107.727 379.016L109.741 373.317Z" fill="#E81F76"/>
<path opacity="0.3" d="M117.57 383.069L115.054 377.789L109.889 380.254L107.875 385.953L113.04 383.488L115.556 388.768L117.57 383.069Z" fill="#E81F76"/>
<path opacity="0.3" d="M89.1072 400.672L86.592 395.416L81.4382 397.869L79.4118 403.556L84.5769 401.091L87.093 406.371L89.1072 400.672Z" fill="#E81F76"/>
<path opacity="0.3" d="M80.6953 383.358L79.3207 377.672L73.7618 379.007L70.6048 384.165L76.175 382.818L77.5384 388.516L80.6953 383.358Z" fill="#E81F76"/>
<path opacity="0.3" d="M93.1809 366.015L88.8353 362.102L85.0246 366.362L85.3372 372.393L89.1713 368.132L93.5168 372.045L93.1809 366.015Z" fill="#E81F76"/>
<path opacity="0.3" d="M80.1988 368.51L81.6416 362.845L76.094 361.421L70.8943 364.507L76.4531 365.919L75.0103 371.584L80.1988 368.51Z" fill="#E81F76"/>
<path d="M277.841 161.652L275.313 156.384L270.149 158.872L268.171 164.582L273.311 162.094L275.873 167.349L277.841 161.652Z" fill="#E81F76"/>
<path opacity="0.3" d="M67.7066 349.038L72.4736 345.641L69.1516 340.988L63.1879 339.989L66.522 344.653L61.7549 348.05L67.7066 349.038Z" fill="#E81F76"/>
<path opacity="0.4" d="M122.911 351.904L121.862 346.159L116.232 347.181L112.787 352.14L118.429 351.129L119.466 356.863L122.911 351.904Z" fill="#E81F76"/>
<path d="M343.132 145.316L344.139 139.562L338.492 138.586L333.564 142.059L339.199 143.024L338.193 148.801L343.132 145.316Z" fill="#E81F76"/>
<path d="M337.243 157.556L338.25 151.803L332.614 150.814L327.674 154.276L333.31 155.264L332.303 161.018L337.243 157.556Z" fill="#E81F76"/>
<path opacity="0.4" d="M133.953 358.26L131.208 353.106L126.156 355.789L124.403 361.571L129.454 358.888L132.199 364.043L133.953 358.26Z" fill="#E81F76"/>
<path opacity="0.3" d="M95.7232 384.805L98.8293 379.847L93.9912 376.807L88.1055 378.154L92.9557 381.206L89.8375 386.152L95.7232 384.805Z" fill="#E81F76"/>
<path opacity="0.4" d="M111.895 362.751L115.014 357.805L110.175 354.764L104.278 356.1L109.128 359.152L106.01 364.098L111.895 362.751Z" fill="#E81F76"/>
<path opacity="0.4" d="M87.2339 345.311L92.0261 341.96L88.7377 337.271L82.7955 336.224L86.0717 340.902L81.2795 344.253L87.2339 345.311Z" fill="#E81F76"/>
<path opacity="0.4" d="M112.97 327.905L113.988 322.139L108.352 321.151L103.4 324.601L109.037 325.613L108.03 331.366L112.97 327.905Z" fill="#E81F76"/>
<path opacity="0.3" d="M121.333 397.99L122.34 392.236L116.715 391.236L111.763 394.686L117.411 395.686L116.381 401.44L121.333 397.99Z" fill="#E81F76"/>
<path opacity="0.4" d="M152.895 349.308L152.38 343.495L146.685 344.006L142.806 348.63L148.502 348.12L149.029 353.944L152.895 349.308Z" fill="#E81F76"/>
<path opacity="0.4" d="M102.456 357.339L100.757 351.735L95.2696 353.406L92.4345 358.727L97.9221 357.056L99.6209 362.66L102.456 357.339Z" fill="#E81F76"/>
<path d="M346.437 169.043L345.899 163.232L340.204 163.765L336.337 168.401L342.044 167.879L342.582 173.69L346.437 169.043Z" fill="#E81F76"/>
<path d="M333.492 184.452L332.965 178.628L327.259 179.151L323.404 183.798L329.099 183.264L329.638 189.099L333.492 184.452Z" fill="#E81F76"/>
<path d="M376.779 132.13L376.229 126.307L370.534 126.841L366.668 131.477L372.375 130.955L372.925 136.777L376.779 132.13Z" fill="#E81F76"/>
<path d="M349.088 72.1931L348.55 66.3817L342.843 66.904L338.988 71.5511L344.695 71.0288L345.233 76.8403L349.088 72.1931Z" fill="#E81F76"/>
<path opacity="0.7" d="M183.855 231.715L183.317 225.904L177.61 226.426L173.756 231.073L179.474 230.539L180.001 236.362L183.855 231.715Z" fill="#E81F76"/>
<path d="M368.251 143.841L365.517 138.674L360.465 141.357L358.676 147.129L363.74 144.457L366.485 149.612L368.251 143.841Z" fill="#E81F76"/>
<path d="M386.622 128.82L389.932 124.006L385.215 120.762L379.272 121.855L383.99 125.099L380.679 129.912L386.622 128.82Z" fill="#E81F76"/>
<path d="M390.641 106.518L396.274 104.982L394.777 99.4525L389.532 96.4625L391.029 101.992L385.396 103.528L390.641 106.518Z" fill="#E81F76"/>
<path opacity="0.5" d="M137.185 309.856L140.291 304.898L135.453 301.858L129.567 303.205L134.406 306.245L131.299 311.203L137.185 309.856Z" fill="#E81F76"/>
<path d="M345.742 159.416L350.362 155.838L346.869 151.32L340.879 150.544L344.383 155.074L339.751 158.64L345.742 159.416Z" fill="#E81F76"/>
<path d="M420.395 126.312L420.721 120.467L415.017 120.136L410.507 124.154L416.223 124.473L415.886 130.33L420.395 126.312Z" fill="#E81F76"/>
<path opacity="0.3" d="M65.8721 407.99L64.1742 402.41L58.6978 404.068L55.8515 409.402L61.3279 407.743L63.0379 413.334L65.8721 407.99Z" fill="#E81F76"/>
<path opacity="0.8" d="M295.932 240.119L296.27 234.286L290.565 233.955L286.056 237.973L291.771 238.291L291.435 244.148L295.932 240.119Z" fill="#E81F76"/>
<path d="M304.468 204.485L304.793 198.64L299.078 198.321L294.579 202.327L300.296 202.669L299.958 208.503L304.468 204.485Z" fill="#E81F76"/>
<path d="M361.298 109.979L357.743 105.335L353.201 108.828L352.402 114.819L356.956 111.337L360.511 115.981L361.298 109.979Z" fill="#E81F76"/>
<path d="M378.919 112.32L375.364 107.675L370.822 111.168L370.034 117.148L374.576 113.654L378.131 118.299L378.919 112.32Z" fill="#E81F76"/>
<path d="M422.352 99.8699L418.785 95.2379L414.255 98.7188L413.468 104.721L418.01 101.228L421.565 105.872L422.352 99.8699Z" fill="#E81F76"/>
<path opacity="0.3" d="M44.0982 357.9L42.6423 352.229L37.087 353.657L34.0131 358.847L39.5693 357.442L41.0131 363.102L44.0982 357.9Z" fill="#E81F76"/>
<path d="M381.511 66.1373L377.956 61.4932L373.415 64.9862L372.638 70.9532L377.18 67.4835L380.723 72.1164L381.511 66.1373Z" fill="#E81F76"/>
<path d="M369.12 98.1087L365.553 93.4767L361.012 96.9697L360.224 102.949L364.754 99.4678L368.32 104.1L369.12 98.1087Z" fill="#E81F76"/>
<path d="M304.451 214.735L300.884 210.103L296.343 213.596L295.555 219.575L300.108 216.093L303.675 220.725L304.451 214.735Z" fill="#E81F76"/>
<path opacity="0.5" d="M140.175 266.112L135.24 262.981L132.176 267.82L133.5 273.707L136.564 268.868L141.499 271.998L140.175 266.112Z" fill="#E81F76"/>
<path d="M365.056 131.515L360.409 127.976L356.948 132.515L357.75 138.503L361.222 133.953L365.869 137.491L365.056 131.515Z" fill="#E81F76"/>
<path opacity="0.8" d="M271.07 260.203L267.254 255.767L262.921 259.521L262.485 265.534L266.819 261.803L270.645 266.203L271.07 260.203Z" fill="#E81F76"/>
<path opacity="0.8" d="M277.447 249.405L273.621 245.005L269.299 248.747L268.863 254.759L273.185 251.017L277.012 255.441L277.447 249.405Z" fill="#E81F76"/>
<path opacity="0.7" d="M195.535 224.186L191.707 219.763L187.386 223.504L186.951 229.54L191.272 225.798L195.111 230.209L195.535 224.186Z" fill="#E81F76"/>
<path opacity="0.4" d="M102.956 312.077L97.3621 310.363L95.6778 315.827L98.5001 321.165L100.184 315.701L105.778 317.415L102.956 312.077Z" fill="#E81F76"/>
<path d="M351.069 91.8811L345.414 90.4028L343.955 95.9401L347.006 101.153L348.454 95.6043L354.109 97.1059L351.069 91.8811Z" fill="#E81F76"/>
<path d="M333.235 105.98L327.58 104.479L326.143 110.015L329.183 115.24L330.631 109.691L336.287 111.193L333.235 105.98Z" fill="#E81F76"/>
<path d="M356.358 145.184L355.064 139.483L349.48 140.749L346.274 145.862L351.859 144.596L353.152 150.297L356.358 145.184Z" fill="#E81F76"/>
<path d="M363.872 30.3237L358.937 27.1934L355.873 32.0324L357.196 37.9189L360.26 33.0799L365.195 36.2103L363.872 30.3237Z" fill="#E81F76"/>
<path d="M334.933 94.4499L335.434 88.6103L329.735 88.1272L325.104 92.0094L330.815 92.5037L330.312 98.3199L334.933 94.4499Z" fill="#E81F76"/>
<path d="M367.103 121.456L363.026 117.252L358.925 121.243L358.829 127.277L362.93 123.287L367.006 127.49L367.103 121.456Z" fill="#E81F76"/>
<path opacity="0.8" d="M242.251 226.348L239.139 221.395L234.289 224.444L232.947 230.316L237.786 227.279L240.887 232.244L242.251 226.348Z" fill="#E81F76"/>
<path opacity="0.7" d="M215.443 206.29L210.082 203.936L207.782 209.19L209.984 214.809L212.284 209.555L217.645 211.91L215.443 206.29Z" fill="#E81F76"/>
<path opacity="0.7" d="M224.576 213.444L219.227 211.101L216.938 216.343L219.129 221.974L221.429 216.72L226.79 219.075L224.576 213.444Z" fill="#E81F76"/>
<path d="M300.044 227.562L300.147 221.714L294.44 221.605L290.089 225.792L295.807 225.889L295.693 231.749L300.044 227.562Z" fill="#E81F76"/>
<path opacity="0.8" d="M288.555 248.01L288.659 242.162L282.94 242.066L278.6 246.24L284.308 246.349L284.193 252.209L288.555 248.01Z" fill="#E81F76"/>
<path opacity="0.7" d="M207.421 215.632L201.609 214.931L200.927 220.625L204.649 225.357L205.344 219.673L211.144 220.386L207.421 215.632Z" fill="#E81F76"/>
<path opacity="0.7" d="M204.388 223.427L198.576 222.726L197.893 228.397L201.616 233.151L202.31 227.468L208.111 228.181L204.388 223.427Z" fill="#E81F76"/>
<path opacity="0.7" d="M184.894 236.889L179.106 236.187L178.411 241.87L182.135 246.625L182.829 240.941L188.618 241.643L184.894 236.889Z" fill="#E81F76"/>
<path opacity="0.5" d="M126.248 293.421L120.56 294.749L121.872 300.333L127.019 303.502L125.696 297.931L131.395 296.59L126.248 293.421Z" fill="#E81F76"/>
<path opacity="0.5" d="M113.821 279.907L108.122 281.247L109.435 286.83L114.582 289.999L113.258 284.428L118.968 283.076L113.821 279.907Z" fill="#E81F76"/>
<path opacity="0.7" d="M161.145 243.279L155.458 244.63L156.77 250.213L161.917 253.382L160.594 247.811L166.28 246.46L161.145 243.279Z" fill="#E81F76"/>
<path opacity="0.8" d="M256.237 269.314L256.352 263.478L250.621 263.37L246.281 267.545L252.001 267.665L251.898 273.512L256.237 269.314Z" fill="#E81F76"/>
<path d="M317.235 169.191L314.987 174.583L320.26 176.789L325.853 174.495L320.567 172.278L322.827 166.897L317.235 169.191Z" fill="#E81F76"/>
<path d="M307.704 171.8L303.695 176.055L307.854 179.975L313.889 179.803L309.719 175.872L313.728 171.616L307.704 171.8Z" fill="#E81F76"/>
<path d="M301.416 179.707L297.394 183.952L301.576 187.871L307.6 187.687L303.43 183.779L307.451 179.511L301.416 179.707Z" fill="#E81F76"/>
<path d="M328.888 164.9L324.878 169.156L329.049 173.087L335.073 172.903L330.914 168.983L334.911 164.716L328.888 164.9Z" fill="#E81F76"/>
<path d="M295.713 169.045L292.869 174.156L297.884 176.932L303.688 175.261L298.673 172.484L301.516 167.373L295.713 169.045Z" fill="#E81F76"/>
<path d="M249.883 142.982L245.533 146.9L249.366 151.148L255.397 151.467L251.553 147.208L255.902 143.289L249.883 142.982Z" fill="#E81F76"/>
<path d="M279.909 176.603L275.559 180.521L279.391 184.769L285.423 185.088L281.59 180.84L285.929 176.934L279.909 176.603Z" fill="#E81F76"/>
<path d="M269.293 178.342L264.943 182.26L268.775 186.508L274.807 186.826L270.974 182.579L275.324 178.66L269.293 178.342Z" fill="#E81F76"/>
<path d="M269.221 184.422L264.871 188.34L268.704 192.588L274.735 192.907L270.89 188.647L275.252 184.741L269.221 184.422Z" fill="#E81F76"/>
<path d="M291 179.358L286.65 183.276L290.483 187.524L296.514 187.842L292.682 183.594L297.031 179.676L291 179.358Z" fill="#E81F76"/>
<path d="M282.529 187.361L278.19 191.267L282.024 195.538L288.054 195.833L284.221 191.586L288.571 187.667L282.529 187.361Z" fill="#E81F76"/>
<path d="M282.985 186.432L278.623 190.339L282.468 194.598L288.487 194.905L284.666 190.645L289.016 186.75L282.985 186.432Z" fill="#E81F76"/>
<path d="M261.955 195.16L257.616 199.066L261.437 203.326L267.468 203.645L263.636 199.397L267.986 195.479L261.955 195.16Z" fill="#E81F76"/>
<path opacity="0.8" d="M255.878 200.091L251.528 203.986L255.372 208.245L261.38 208.565L257.559 204.305L261.897 200.399L255.878 200.091Z" fill="#E81F76"/>
<path opacity="0.8" d="M263.015 208.21L261.595 213.874L267.142 215.275L272.317 212.167L266.771 210.766L268.19 205.102L263.015 208.21Z" fill="#E81F76"/>
<path d="M314.949 121.348L309.234 122.583L310.442 128.182L315.511 131.459L314.304 125.861L320.018 124.625L314.949 121.348Z" fill="#E81F76"/>
<path opacity="0.5" d="M136.949 274.358L131.218 275.489L132.334 281.115L137.359 284.464L136.244 278.838L141.985 277.695L136.949 274.358Z" fill="#E81F76"/>
<path opacity="0.5" d="M133.79 313.691L127.982 313.084L127.358 318.764L131.149 323.469L131.761 317.777L137.582 318.396L133.79 313.691Z" fill="#E81F76"/>
<path opacity="0.8" d="M262.118 229.667L256.684 227.537L254.597 232.877L257.018 238.406L259.104 233.066L264.55 235.184L262.118 229.667Z" fill="#E81F76"/>
<path opacity="0.8" d="M252.025 222.772L246.579 220.631L244.504 225.981L246.936 231.498L249.011 226.171L254.457 228.289L252.025 222.772Z" fill="#E81F76"/>
<path opacity="0.7" d="M194.368 249.604L190.609 245.132L186.227 248.817L185.709 254.821L190.091 251.136L193.839 255.62L194.368 249.604Z" fill="#E81F76"/>
<path opacity="0.4" d="M125.339 321.892L120.714 318.305L117.217 322.833L117.972 328.824L121.481 324.307L126.094 327.882L125.339 321.892Z" fill="#E81F76"/>
<path opacity="0.8" d="M267.99 223.401L266.583 229.076L272.129 230.453L277.304 227.345L271.746 225.957L273.166 220.292L267.99 223.401Z" fill="#E81F76"/>
<path opacity="0.8" d="M258.916 217.156L257.509 222.831L263.055 224.232L268.231 221.124L262.684 219.723L264.091 214.048L258.916 217.156Z" fill="#E81F76"/>
<path opacity="0.8" d="M281.444 214.587L275.998 212.446L273.923 217.796L276.344 223.325L278.43 217.986L283.876 220.104L281.444 214.587Z" fill="#E81F76"/>
<path opacity="0.8" d="M229.616 192.763L224.182 190.634L222.095 195.973L224.527 201.49L226.602 196.163L232.06 198.292L229.616 192.763Z" fill="#E81F76"/>
<path opacity="0.8" d="M285.863 225.591L280.405 223.462L278.33 228.79L280.774 234.318L282.849 228.991L288.294 231.108L285.863 225.591Z" fill="#E81F76"/>
<path opacity="0.8" d="M249.779 187.328L244.322 185.199L242.247 190.526L244.679 196.067L246.766 190.728L252.2 192.857L249.779 187.328Z" fill="#E81F76"/>
<path d="M262.015 188.824L256.569 186.706L254.494 192.033L256.915 197.562L259.001 192.223L264.459 194.352L262.015 188.824Z" fill="#E81F76"/>
<path d="M268 144.544L262.565 142.415L260.479 147.754L262.911 153.271L264.974 147.933L270.431 150.061L268 144.544Z" fill="#E81F76"/>
<path opacity="0.8" d="M278.238 235.28L272.793 233.162L270.706 238.501L273.138 244.018L275.224 238.679L280.671 240.82L278.238 235.28Z" fill="#E81F76"/>
<path opacity="0.7" d="M203.167 204.668L197.721 202.551L195.635 207.89L198.067 213.407L200.142 208.08L205.6 210.209L203.167 204.668Z" fill="#E81F76"/>
<path opacity="0.8" d="M245.76 239.889L243.588 234.456L238.282 236.587L235.899 242.125L241.218 240.004L243.377 245.427L245.76 239.889Z" fill="#E81F76"/>
<path opacity="0.7" d="M217.788 281.024L215.617 275.59L210.298 277.711L207.928 283.259L213.246 281.139L215.406 286.561L217.788 281.024Z" fill="#E81F76"/>
<path d="M287.204 199.886L281.759 197.768L279.684 203.095L282.104 208.624L284.179 203.297L289.625 205.415L287.204 199.886Z" fill="#E81F76"/>
<path opacity="0.8" d="M238.979 183.92L233.544 181.79L231.458 187.129L233.878 192.659L235.965 187.319L241.399 189.449L238.979 183.92Z" fill="#E81F76"/>
<path opacity="0.8" d="M268.482 241.146L264.734 236.662L260.34 240.336L259.823 246.363L264.205 242.678L267.964 247.15L268.482 241.146Z" fill="#E81F76"/>
<path opacity="0.7" d="M221.68 198.245L217.921 193.772L213.527 197.446L213.01 203.474L217.392 199.788L221.151 204.261L221.68 198.245Z" fill="#E81F76"/>
<path opacity="0.8" d="M214.148 182.532L210.4 178.047L206.018 181.733L205.488 187.749L209.87 184.063L213.63 188.536L214.148 182.532Z" fill="#E81F76"/>
<path opacity="0.8" d="M215.461 187.778L211.713 183.293L207.331 186.979L206.801 192.995L211.183 189.309L214.942 193.782L215.461 187.778Z" fill="#E81F76"/>
<path opacity="0.7" d="M204.056 263.037L200.296 258.541L195.914 262.226L195.385 268.242L199.767 264.557L203.526 269.029L204.056 263.037Z" fill="#E81F76"/>
<path opacity="0.7" d="M206.306 251.567L202.535 247.083L198.164 250.756L197.634 256.772L202.029 253.098L205.776 257.559L206.306 251.567Z" fill="#E81F76"/>
<path d="M318.671 138.912L314.912 134.439L310.518 138.113L309.989 144.129L314.383 140.455L318.154 144.939L318.671 138.912Z" fill="#E81F76"/>
<path opacity="0.5" d="M143.352 289.903L138.739 286.328L135.243 290.856L135.998 296.846L139.506 292.306L144.131 295.892L143.352 289.903Z" fill="#E81F76"/>
<path d="M287.336 193.862L285.928 199.538L291.474 200.915L296.651 197.83L291.104 196.43L292.523 190.765L287.336 193.862Z" fill="#E81F76"/>
<path opacity="0.7" d="M181.561 213.29L180.13 218.967L185.688 220.355L190.863 217.247L185.305 215.858L186.724 210.171L181.561 213.29Z" fill="#E81F76"/>
<path opacity="0.7" d="M181.831 203.252L178.083 198.767L173.701 202.453L173.159 208.457L177.553 204.783L181.301 209.268L181.831 203.252Z" fill="#E81F76"/>
<path opacity="0.7" d="M174.167 234.178L170.408 229.706L166.025 233.368L165.484 239.396L169.879 235.722L173.638 240.194L174.167 234.178Z" fill="#E81F76"/>
<path opacity="0.7" d="M155.102 204.158L155.252 198.309L149.52 198.178L145.168 202.341L150.889 202.485L150.738 208.334L155.102 204.158Z" fill="#E81F76"/>
<path d="M227.056 144.779L221.28 145.642L222.139 151.301L226.987 154.891L226.14 149.243L231.926 148.367L227.056 144.779Z" fill="#E81F76"/>
<path opacity="0.7" d="M192.439 175.977L187.504 172.847L184.44 177.662L185.752 183.561L188.816 178.722L193.752 181.876L192.439 175.977Z" fill="#E81F76"/>
<path opacity="0.7" d="M197.887 185.797L192.032 185.506L191.76 191.22L195.8 195.706L196.084 189.98L201.927 190.282L197.887 185.797Z" fill="#E81F76"/>
<path opacity="0.7" d="M186.711 192.442L181.788 189.299L178.712 194.127L180.024 200.026L183.1 195.198L188.024 198.341L186.711 192.442Z" fill="#E81F76"/>
<path d="M250.334 158.416L245.399 155.285L242.334 160.101L243.647 166L246.699 161.173L251.646 164.314L250.334 158.416Z" fill="#E81F76"/>
<path opacity="0.5" d="M119.092 267.387L118.554 261.575L112.859 262.109L108.993 266.745L114.689 266.234L115.239 272.057L119.092 267.387Z" fill="#E81F76"/>
<path opacity="0.7" d="M149.423 230.486L148.885 224.651L143.178 225.173L139.323 229.82L145.03 229.298L145.569 235.133L149.423 230.486Z" fill="#E81F76"/>
<path opacity="0.7" d="M140.895 242.195L138.172 237.017L133.11 239.712L131.331 245.472L136.395 242.8L139.129 247.966L140.895 242.195Z" fill="#E81F76"/>
<path opacity="0.7" d="M159.277 227.163L162.587 222.35L157.87 219.106L151.928 220.198L156.645 223.442L153.347 228.267L159.277 227.163Z" fill="#E81F76"/>
<path opacity="0.7" d="M163.297 204.861L168.93 203.325L167.422 197.808L162.177 194.818L163.697 200.346L158.041 201.884L163.297 204.861Z" fill="#E81F76"/>
<path opacity="0.5" d="M118.385 257.771L123.028 254.192L119.524 249.663L113.534 248.887L117.038 253.416L112.395 256.995L118.385 257.771Z" fill="#E81F76"/>
<path d="M357.285 61.9095L357.611 56.065L351.906 55.734L347.409 59.763L353.125 60.0819L352.787 65.9152L357.285 61.9095Z" fill="#E81F76"/>
<path d="M365.427 75.5536L365.765 69.7203L360.06 69.3893L355.551 73.407L361.266 73.7259L360.941 79.5704L365.427 75.5536Z" fill="#E81F76"/>
<path opacity="0.8" d="M232.833 175.728L233.171 169.895L227.443 169.565L222.945 173.57L228.661 173.912L228.324 179.746L232.833 175.728Z" fill="#E81F76"/>
<path opacity="0.7" d="M151.575 210.663L148.008 206.031L143.466 209.501L142.69 215.491L147.232 212.022L150.775 216.654L151.575 210.663Z" fill="#E81F76"/>
<path d="M373.81 46.8903L370.243 42.2583L365.713 45.7392L364.925 51.7183L369.467 48.2486L373.022 52.8694L373.81 46.8903Z" fill="#E81F76"/>
<path d="M343.348 38.8694L339.781 34.2374L335.24 37.7304L334.464 43.7207L338.994 40.2165L342.561 44.8718L343.348 38.8694Z" fill="#E81F76"/>
<path opacity="0.7" d="M176.126 188.265L172.56 183.633L168.03 187.114L167.242 193.093L171.772 189.612L175.338 194.244L176.126 188.265Z" fill="#E81F76"/>
<path d="M241.34 150.357L237.785 145.713L233.243 149.182L232.443 155.173L236.997 151.692L240.54 156.324L241.34 150.357Z" fill="#E81F76"/>
<path opacity="0.7" d="M137.711 229.859L133.064 226.32L129.592 230.871L130.405 236.847L133.877 232.296L138.524 235.835L137.711 229.859Z" fill="#E81F76"/>
<path opacity="0.7" d="M207.959 195.801L204.132 191.378L199.81 195.119L199.386 201.143L203.708 197.401L207.546 201.812L207.959 195.801Z" fill="#E81F76"/>
<path opacity="0.5" d="M129.014 243.527L127.71 237.838L122.137 239.115L118.919 244.217L124.492 242.94L125.809 248.64L129.014 243.527Z" fill="#E81F76"/>
<path opacity="0.7" d="M163.768 208.314L158.833 205.184L155.769 210.023L157.093 215.91L160.157 211.071L165.092 214.201L163.768 208.314Z" fill="#E81F76"/>
<path opacity="0.7" d="M139.747 219.811L135.671 215.607L131.581 219.586L131.473 225.632L135.598 221.641L139.662 225.833L139.747 219.811Z" fill="#E81F76"/>
<path d="M236.934 163.159L237.061 157.311L231.33 157.203L226.979 161.39L232.699 161.51L232.594 167.334L236.934 163.159Z" fill="#E81F76"/>
<path opacity="0.8" d="M225.445 183.608L225.548 177.76L219.829 177.663L215.489 181.838L221.209 181.958L221.082 187.807L225.445 183.608Z" fill="#E81F76"/>
<path opacity="0.7" d="M193.138 204.923L193.242 199.076L187.511 198.968L183.159 203.155L188.903 203.274L188.787 209.11L193.138 204.923Z" fill="#E81F76"/>
<path opacity="0.8" d="M199.007 165.266L193.561 163.148L191.486 168.475L193.907 174.004L196.005 168.676L201.451 170.794L199.007 165.266Z" fill="#E81F76"/>
<path opacity="0.8" d="M204.88 158.999L203.472 164.674L209.019 166.075L214.194 162.966L208.648 161.566L210.055 155.89L204.88 158.999Z" fill="#E81F76"/>
<path opacity="0.8" d="M222.751 161.189L217.305 159.072L215.23 164.399L217.651 169.928L219.737 164.589L225.183 166.706L222.751 161.189Z" fill="#E81F76"/>
<path opacity="0.8" d="M215.14 170.889L209.694 168.772L207.607 174.088L210.027 179.617L212.103 174.289L217.56 176.418L215.14 170.889Z" fill="#E81F76"/>
<path opacity="0.8" d="M205.384 176.755L201.623 172.259L197.23 175.957L196.712 181.961L201.094 178.275L204.865 182.759L205.384 176.755Z" fill="#E81F76"/>
</svg>
