<svg width="109" height="83" viewBox="0 0 109 83" fill="none" xmlns="http://www.w3.org/2000/svg">
<path d="M101.982 38.6719L105.593 42.4912L101.817 46.0045L96.3463 45.8433L100.143 42.3241L96.5056 38.4768L101.982 38.6719Z" fill="#E81F76"/>
<path opacity="0.7" d="M91.3937 38.1719L95.0047 41.9912L91.229 45.5045L85.7584 45.3433L89.5547 41.8241L85.9177 37.9768L91.3937 38.1719Z" fill="#E81F76"/>
<path opacity="0.5" d="M79.5578 38.2578L83.1688 42.0771L79.3931 45.5904L73.9224 45.4292L77.7188 41.9101L74.0817 38.0628L79.5578 38.2578Z" fill="#E81F76"/>
<path opacity="0.3" d="M68.589 38.2412L72.2 42.0605L68.4243 45.5738L62.9537 45.4126L66.75 41.8935L63.113 38.0462L68.589 38.2412Z" fill="#E81F76"/>
<path opacity="0.3" d="M55.6496 38.0967L59.2606 41.916L55.4849 45.4293L50.0142 45.2681L53.8106 41.7489L50.1735 37.9017L55.6496 38.0967Z" fill="#E81F76"/>
<path opacity="0.1" d="M43.3273 37.957L46.9383 41.7764L43.1626 45.2896L37.692 45.1284L41.4883 41.6093L37.8513 37.762L43.3273 37.957Z" fill="#E81F76"/>
<path opacity="0.1" d="M31.6232 37.8262L35.2342 41.6455L31.4585 45.1588L25.9879 44.9976L29.7842 41.4784L26.1472 37.6311L31.6232 37.8262Z" fill="#E81F76"/>
<path opacity="0.1" d="M19.9162 37.6953L23.5272 41.5146L19.7515 45.0279L14.2808 44.8667L18.0772 41.3476L14.4401 37.5003L19.9162 37.6953Z" fill="#E81F76"/>
<path opacity="0.05" d="M8.36443 37.459L11.9754 41.2783L8.19972 44.7916L2.72909 44.6304L6.5254 41.1112L2.88838 37.264L8.36443 37.459Z" fill="#E81F76"/>
</svg>
