<?xml version="1.0" encoding="UTF-8"?>
<svg id="Layer_1" xmlns="http://www.w3.org/2000/svg" viewBox="0 0 60 60">
  <defs>
    <style>
      .cls-1 {
        fill: #231f20;
      }
    </style>
  </defs>
  <path class="cls-1" d="M29.65,26.86c-.82,0-1.78-.59-3.16-1.48-.57-.37-1.42-.92-1.69-.97H6.06c-3.34,0-6.06-3.78-6.06-8.44S2.66,7.52,6.06,7.52h18.78c3.4,0,6.06,3.71,6.06,8.44,0,1.41-.25,2.79-.72,4.02-.07.32.24,1.65.42,2.45.46,1.95.78,3.35,0,4.07-.18.16-.48.36-.96.36ZM6.06,9.35c-2.29,0-4.23,3.03-4.23,6.61s1.94,6.61,4.23,6.61h18.78c.66,0,1.4.45,2.64,1.26.46.3,1.23.8,1.74,1.04-.06-.57-.27-1.45-.41-2.04-.4-1.71-.63-2.79-.35-3.52.39-1.02.6-2.18.6-3.36,0-3.58-1.94-6.61-4.23-6.61H6.06Z"/>
  <path class="cls-1" d="M25.16,14.45H5.74c-.51,0-.91-.41-.91-.92s.41-.91.91-.91h19.42c.5,0,.92.41.92.91s-.41.92-.92.92Z"/>
  <path class="cls-1" d="M25.16,19.31H5.74c-.51,0-.91-.41-.91-.91s.41-.92.91-.92h19.42c.5,0,.92.41.92.92s-.41.91-.92.91Z"/>
  <g>
    <path class="cls-1" d="M59.72,44.66c-4.39-3.18-10.22-4.94-16.41-4.94s-12.01,1.75-16.41,4.94c-.17.13-.27.33-.27.54v4.86c0,1.33,1.08,2.41,2.41,2.41h28.54c1.33,0,2.41-1.08,2.41-2.41v-4.86c0-.21-.1-.41-.28-.54ZM50.12,41.83c-.79,2.97-2.41,4.27-3.13,4.72l-3.24-2.81c-.25-.22-.62-.22-.87,0l-3.24,2.81c-.71-.45-2.34-1.75-3.12-4.72,2.17-.5,4.45-.77,6.8-.77s4.63.27,6.8.77ZM27.97,50.06v-4.52c2.12-1.49,4.59-2.63,7.27-3.39,1.18,4.46,4.11,5.75,4.24,5.81.24.1.5.05.69-.11l.27-.23,1.09,2.23-.52,1.3h-11.97c-.6,0-1.08-.49-1.08-1.08ZM42.45,51.15l.43-1.08c.07-.17.06-.37-.02-.54l-1.38-2.81,1.84-1.6,1.85,1.6-1.39,2.81c-.08.17-.09.37-.02.54l.43,1.08h-1.74ZM58.67,50.06c0,.6-.48,1.08-1.08,1.08h-11.97l-.52-1.3,1.1-2.23.27.23c.12.11.28.16.44.16.09,0,.18-.02.26-.05.13-.06,3.06-1.34,4.24-5.81,2.68.76,5.15,1.9,7.27,3.39v4.52Z"/>
    <path class="cls-1" d="M51.86,25.87c0-.09,0-.18-.01-.26-.26-5.8-3.13-8.74-8.53-8.74s-8.35,3.03-8.54,9c-.95.29-1.55,1.55-1.41,3.1.14,1.53.94,2.66,1.94,2.77.71,2.34,2.02,4.3,3.75,5.56,1.29.94,2.76,1.43,4.26,1.43s2.97-.49,4.26-1.43c1.73-1.26,3.05-3.21,3.76-5.56,1-.11,1.8-1.24,1.94-2.77.14-1.54-.46-2.8-1.41-3.1ZM43.32,18.2c4.49,0,6.78,2.18,7.16,6.84-.06,0-.13.01-.19.02-.07,0-.13,0-.19.01-.26.02-.52.03-.78.03-5,0-7.07-3.05-7.15-3.18-.03-.05-.07-.1-.12-.14-.01-.01-.03-.02-.05-.03-.03-.03-.07-.05-.11-.07-.02-.01-.04-.02-.06-.03-.03-.01-.07-.03-.11-.03-.02,0-.05,0-.07-.01-.02,0-.03,0-.05,0-.03,0-.07,0-.1,0-.27.04-.53.09-.78.16-.09.02-.16.05-.25.07-.17.05-.33.1-.5.15-.09.03-.18.07-.27.1-.15.06-.29.11-.43.18-.09.04-.18.08-.26.12-.14.06-.28.13-.41.2-.08.04-.16.08-.24.12-.14.08-.28.16-.41.24-.06.04-.12.07-.18.11-.19.12-.37.24-.54.36-.02.01-.04.03-.07.05-.15.11-.29.21-.43.32-.06.04-.1.09-.16.13-.1.08-.19.16-.28.24-.02.01-.04.03-.06.05.77-5.35,4.34-6.02,7.07-6.02ZM51.94,28.85c-.09,1.03-.58,1.57-.76,1.57h-.05c-.18-.1-.39-.1-.57-.01s-.31.24-.36.44c-.58,2.3-1.79,4.21-3.41,5.38-1.06.77-2.26,1.18-3.48,1.18s-2.42-.41-3.48-1.18c-1.61-1.17-2.82-3.08-3.4-5.38-.05-.19-.2-.35-.38-.43-.09-.04-.18-.06-.28-.06-.11,0-.22.03-.31.07-.18,0-.67-.54-.77-1.57-.09-1.07.31-1.69.49-1.71,0,0,.01,0,.05.01.2.06.42.03.59-.1.17-.12.27-.32.27-.53,0-.1,0-.19,0-.28.03-.04.07-.08.11-.13.01-.01.03-.03.05-.05.03-.04.07-.08.12-.12.02-.03.05-.05.07-.08.04-.04.08-.08.12-.12.03-.03.06-.06.09-.09.05-.05.09-.09.14-.13.04-.03.07-.07.11-.11.05-.05.1-.09.16-.14.04-.03.08-.07.13-.11.06-.05.12-.1.18-.15.04-.04.09-.07.13-.11.08-.06.16-.13.25-.19.03-.02.06-.05.1-.08.12-.09.24-.18.37-.26.04-.03.08-.05.12-.08.1-.06.19-.12.29-.18.05-.03.11-.06.16-.09.09-.05.18-.1.28-.16.06-.03.12-.06.18-.09.09-.05.19-.09.28-.14.07-.03.13-.06.2-.09.1-.05.2-.09.31-.13.07-.03.13-.05.2-.07.12-.04.24-.08.35-.12.06-.02.12-.04.18-.05.18-.05.36-.1.55-.14.78.96,3.25,3.43,7.99,3.43.28,0,.57-.01.86-.03.06,0,.13,0,.19-.01.05,0,.11,0,.17,0v.14c0,.21.1.41.27.54.17.12.39.16.59.1.03-.01.05-.01.04-.01.19.02.59.65.49,1.71Z"/>
    <path class="cls-1" d="M39.44,39.97c.39-.68.6-1.38.71-2.01-.37-.19-.74-.41-1.09-.67-.05-.04-.1-.08-.15-.12-.07.91-.38,2.06-1.32,3.07.61-.11,1.23-.2,1.85-.28Z"/>
    <path class="cls-1" d="M49.04,40.25c-.94-1.01-1.26-2.16-1.33-3.06-.05.04-.09.08-.14.12-.35.26-.72.47-1.1.66.11.63.33,1.32.71,2.01.62.07,1.24.16,1.85.28Z"/>
  </g>
</svg>