<?xml version="1.0" encoding="UTF-8"?>
<svg id="Layer_1" xmlns="http://www.w3.org/2000/svg" viewBox="0 0 60 60">
  <defs>
    <style>
      .cls-1 {
        fill: #231f20;
      }
    </style>
  </defs>
  <path class="cls-1" d="M6.17,59.99c-.13-.49-.31-.9-.33-1.32-.05-.95-.03-1.9-.01-2.85.04-1.91.88-2.74,2.31-3.04.13-.03.25-.11.44-.2v-1.98c-.04-.05-.07-.16-.14-.2-1.95-1.09-2.65-2.8-2.63-4.97.05-4.88.02-9.77.01-14.65,0-3.12.96-5.81,3.26-8.03,2.27-2.2,4.42-4.53,6.6-6.83.36-.38.66-.86.87-1.34.31-.7.77-1.2,1.45-1.53,2.36-1.12,4.74-2.21,7.07-3.38,6-3.02,11.98-6.08,17.98-9.1.55-.28,1.17-.5,1.78-.56,1.29-.12,2.11.62,2.64,1.73,1.06,2.24,2.12,4.48,3.19,6.72,1,2.12,2.02,4.23,3.01,6.35,1.03,2.19.57,3.45-1.61,4.48-.77.36-1.53.75-2.36,1.16,0,.77,0,1.54,0,2.3,0,2.53,0,5.07,0,7.6,0,2.26-1.04,3.28-3.34,3.28-5.38,0-10.76,0-16.15,0-.49,0-.97,0-1.56,0-.03.56-.06,1-.06,1.44,0,1.63-.03,3.26,0,4.88.07,3.93-1.53,6.98-4.77,9.18-.11.08-.21.17-.31.26-.03.03-.05.07-.1.14v3.08c.38.13.74.2,1.06.36.95.47,1.59,1.21,1.62,2.31.03,1.22.03,2.44,0,3.66-.02.81-.23.99-1.09,1.03-.72.03-1.45,0-2.17,0-5.02,0-10.04,0-15.06,0h-1.59ZM26.8,22.06c-.88-.2-1-.21-1.72.37-.85.68-1.67,1.39-2.45,2.15-2.74,2.7-5.44,5.43-8.17,8.15-.34.34-.72.65-1.2,1.07-.4-.37-.72-.68-1.14-1.07,1.3-1.69,2.88-2.92,4.19-4.43,0-1.73,0-3.45,0-5.16,0-1.67.04-3.35-.04-5.26-2.21,2.29-4.2,4.38-6.22,6.44-1.61,1.63-2.4,3.58-2.41,5.85-.01,5.25-.01,10.5,0,15.74,0,1.99,1.1,3.12,3.09,3.15,2.53.03,5.07.07,7.6,0,4.97-.16,8.04-3.92,8.32-7.15.23-2.65.13-5.32.17-7.98,0-.07-.11-.13-.21-.25-1.57,0-3.18-.03-4.85.02,0,1.48,0,2.79,0,4.09,0,1.84-.63,3.48-1.86,4.82-1.6,1.75-3.57,2.69-5.94,2.44-.54-.56-.57-1.03-.07-1.57.3-.06.66-.12,1.01-.19,3.25-.58,4.96-2.56,5.03-5.88.02-1.09.04-2.17,0-3.26-.03-.87.19-1.56.84-2.18.75-.72,1.41-1.53,2.07-2.33,1.35-1.65,2.66-3.32,3.55-5.27.34-.74.7-1.47.41-2.32ZM18.32,26.3c.4-.38.75-.71,1.1-1.06,1.02-1.02,1.98-2.12,3.07-3.06.88-.75,1.87-1.45,2.93-1.9,1.96-.82,3.71.7,3.28,2.79-.18.87-.48,1.76-.92,2.53-.78,1.37-1.69,2.67-2.58,3.96-.48.7-1.04,1.33-1.66,2.12.46.05.76.12,1.06.12,7.23,0,14.46,0,21.69,0,.47,0,.94-.13,1.35-.19.35-1.66.27-15.78-.11-16.87-.38-.03-.81-.11-1.25-.11-8.81,0-17.62,0-26.44,0-.48,0-.95.09-1.37.13-.35,1.1-.44,9.58-.16,11.54ZM44.84,1.63c-7.18,3.62-14.36,7.26-21.49,11.03.9.12,1.75.17,2.6.1.65-.06,1.35-.17,1.93-.45,5.75-2.79,11.49-5.62,17.22-8.44.35-.17.7-.37,1.1-.59-.29-.67-.44-1.35-1.37-1.65ZM7.65,56.1c1.33-.07,2.35-.15,3.38-.18.99-.03,1.99,0,2.98,0,1.04,0,2.08,0,3.12,0q2.36,0,2.93.45c-.35.52-.89.34-1.35.35-3.12.01-6.24,0-9.36,0-.49,0-.97,0-1.53,0-.03.4-.07.66-.06.91,0,.11.12.22.17.32,3.57.25,15.11.13,16.1-.16v-2.83c-.31-.11-.56-.28-.8-.28-5.01-.02-10.01-.01-15.09-.01-.17.5-.31.89-.5,1.43ZM52.64,17c-1.25-3.06-2.65-5.8-4-8.61-2.84,1.44-5.53,2.81-8.23,4.17,2.14.22,4.21.19,6.28.22,1.92.03,2.98,1.14,3.01,3.06.01.82,0,1.65.01,2.66,1.05-.54,1.87-.96,2.93-1.51ZM31.91,12.46c-.04.1-.06.14-.08.18.04.01.08.03.13.03,1.08,0,2.17.05,3.25,0,.52-.03,1.07-.16,1.54-.39,3.36-1.66,6.7-3.36,10.04-5.06.31-.16.61-.36.95-.56-.29-.53-.54-.99-.83-1.53-5.08,2.49-10.06,4.92-14.99,7.34ZM10.46,52.57h10.99v-2.15c-3.66.8-7.31.17-10.99.49v1.66Z"/>
  <path class="cls-1" d="M41.15,24.16c-.86,0-1.71.02-2.57,0-1.45-.04-2.16-.74-2.19-2.17-.02-1.13-.03-2.26,0-3.38.03-1.29.72-2.01,2.02-2.04,1.8-.04,3.61-.04,5.41,0,1.29.03,2.02.75,2.07,2.01.04,1.17.04,2.35,0,3.52-.04,1.27-.77,1.97-2.04,2.06-.09,0-.18,0-.27,0-.81,0-1.62,0-2.44,0ZM40.13,18.54h-1.78c-.09,1.27-.11,2.46,0,3.62h1.78v-3.62Z"/>
  <path class="cls-1" d="M34.4,29.59h-1.77v-2.62h1.77v2.62Z"/>
  <path class="cls-1" d="M38.13,29.59h-1.67v-2.63h1.67v2.63Z"/>
  <path class="cls-1" d="M45.54,29.59h-1.74v-2.64h1.74v2.64Z"/>
  <path class="cls-1" d="M41.79,29.59h-1.58v-2.62h1.58v2.62Z"/>
  <path class="cls-1" d="M22.42,55.32c.96.43,1.16.69,1.02,1.3-.12.52-.47.74-.98.75-.51.01-.88-.2-1.02-.7-.17-.57.05-.86.99-1.35Z"/>
</svg>