<?xml version="1.0" encoding="UTF-8"?>
<svg id="Layer_1" xmlns="http://www.w3.org/2000/svg" viewBox="0 0 60 60">
  <defs>
    <style>
      .cls-1 {
        fill: #231f20;
      }
    </style>
  </defs>
  <path class="cls-1" d="M30.69,35.15v5.27c1.78-.47,3.52-.64,5.02-1.62,1.66-1.09,3.48-1.78,5.48-1.46,1.16.19,2.33.55,3.41,1.02,2.36,1.04,4.66,2.2,7.06,3.34.19-.24.37-.5.57-.73.8-.89,1.6-1.08,2.73-.61.98.4,1.95.82,2.92,1.26,1.7.78,2.1,1.8,1.36,3.57-.62,1.48-1.29,2.95-1.94,4.42-1.26,2.86-2.52,5.73-3.79,8.58-.18.41-.4.87-.73,1.15-.65.55-1.4.85-2.29.43-1.08-.51-2.2-.94-3.29-1.44-1.42-.65-1.82-1.68-1.28-3.16.13-.34.25-.69.43-1.2-1.22-.57-2.38-1.22-3.63-1.64-.6-.2-1.37-.05-2.02.11-1.74.44-3.46.96-5.17,1.47-1.54.46-3.07.95-4.8.58-.06.49-.11.88-.16,1.28-.36,2.67-2.06,4.18-4.76,4.21-1.85.02-3.69,0-5.54,0-4.94,0-9.88,0-14.82,0-.59,0-1.2-.05-1.77-.2-2.03-.52-3.21-1.95-3.38-4.03-.03-.37-.01-.74-.01-1.11,0-13.53,0-27.05,0-40.58,0-.23,0-.46,0-.69.06-2.95,1.8-4.77,4.75-4.78,6.92-.04,13.85-.01,20.78-.01,2.09,0,3.61.95,4.55,2.87h11.67c0-.37.06-.69,0-.98-.95-4.15,1.89-9.3,7-10.3,5.53-1.07,10.72,3.05,10.71,8.67,0,4.43-2.9,7.79-6.89,8.75-.71.17-1.44.25-2.31.4-.02.46-.06.95-.06,1.44,0,4.11,0,8.22,0,12.33,0,.37.01.74,0,1.11-.08,1.58-.74,2.25-2.34,2.27-2.54.03-5.08.01-7.62.01-2.77,0-5.54,0-8.31,0-.45,0-.91,0-1.51,0ZM28.55,11.51c-.92-1.18-1.85-1.38-2.91-1.37-4.66.02-9.32,0-13.99,0-2.26,0-4.52-.02-6.79,0-1.43.01-2.61.86-2.91,2.1-.11.44-.09.92-.09,1.37,0,13.76,0,27.51,0,41.27,0,.23,0,.46,0,.69.07,1.64,1.17,2.78,2.82,2.79,7.15.02,14.31.02,21.46,0,1.6,0,2.79-1.17,2.88-2.76.03-.49-.03-.98-.05-1.46-2.65-1.02-5.18-2-7.71-2.98-2.79-1.08-5.58-2.15-8.37-3.23-1.62-.63-2.65-1.8-3.11-3.46-.57-2.05.39-3.87,2.46-4.39.95-.24,2.04-.31,2.99-.11,2.07.43,4.09,1.07,6.13,1.64,1.54.43,3.08.89,4.52,1.3.55-.52.94-.99,1.43-1.32.52-.35,1.13-.57,1.64-.82v-5.61c-.63,0-1.17,0-1.72,0-4.29,0-8.59.01-12.88-.01-1.68-.01-2.48-.8-2.48-2.45-.01-6.28,0-12.56-.01-18.83,0-.68.2-1.26.65-1.76.52-.58,1.2-.61,1.9-.61,4.15,0,8.31,0,12.46,0,.45,0,.91,0,1.66,0ZM25.63,44.6c-.26-.13-.46-.27-.67-.33-2.96-.86-5.91-1.74-8.88-2.55-.83-.22-1.73-.3-2.59-.28-1.99.04-2.85,1.6-1.93,3.37.5.96,1.32,1.5,2.3,1.87,2.71,1.03,5.41,2.08,8.11,3.12,2.28.87,4.56,1.73,6.83,2.6,1.9.73,3.79.96,5.78.23,1.77-.64,3.62-1.06,5.41-1.62,1.63-.51,3.16-.4,4.66.44.72.4,1.48.72,2.37,1.14,1.38-3.14,2.75-6.23,4.16-9.44-2.93-1.36-5.7-2.69-8.51-3.95-1.87-.84-3.68-.52-5.42.46-.28.16-.59.29-.84.48-.71.56-1.53.81-2.39,1.02-1.74.44-3.48.88-5.2,1.4-1.26.38-1.9,1.56-1.61,2.67.34,1.29,1.52,1.99,2.88,1.68.45-.1.89-.25,1.33-.36,2.31-.61,4.62-1.23,6.94-1.8,1.04-.25,1.22,0,.94,1.3-3.09.8-6.23,1.69-9.4,2.42-1.75.41-3.7-.94-4.14-2.67-.09-.35-.1-.73-.17-1.21ZM48.93,13.22c-.51-.09-.99-.25-1.46-.25-10.85-.01-21.7-.01-32.55,0-.44,0-.88.11-1.37.18v20.41c.62.05,1.15.14,1.69.14,10.67,0,21.33,0,32,0,.32,0,.65.02.97-.02.47-.05.75-.33.79-.81.02-.28.01-.55.01-.83,0-5.82,0-11.63,0-17.45,0-.41-.05-.81-.08-1.37ZM50.47,16.13c2.99.43,6.06-1.58,7.24-4.6,1.24-3.18.07-6.81-2.82-8.77-2.81-1.9-6.52-1.57-9.07.68-2.26,1.99-3.15,6.05-1.74,8.08,1.28,0,2.61-.01,3.95,0,1.73.02,2.39.69,2.44,2.44.02.73,0,1.46,0,2.16ZM53.79,41.58c-.28.41-.48.62-.59.86-1.91,4.33-3.82,8.67-5.71,13.01-.15.35-.16.76-.25,1.2,1.5.65,2.8,1.4,4.42,1.83,2.26-4.92,4.33-9.81,6.53-14.76-1.33-1.08-2.87-1.48-4.41-2.15Z"/>
  <path class="cls-1" d="M18.26,54.36c-.35.21-.7.58-1.06.61-1.18.08-2.38.08-3.56,0-.32-.02-.72-.37-.88-.68-.2-.41.19-.85.77-.87,1.28-.04,2.56-.04,3.84.01.3.01.58.33.87.5,0,.14.02.28.03.43Z"/>
  <path class="cls-1" d="M44.15,14.34c.13,1.22.13,2.09.81,2.79.7.72,1.67.37,2.4.72.33,1.22.32,9.78,0,10.97-.8.3-1.93-.05-2.47.85-.42.72-.62,1.58-.93,2.43-.88.26-23.2.38-25.49.1-.3-.82-.48-1.74-.95-2.49-.5-.81-1.49-.8-2.38-.75-.16-.32-.39-.56-.39-.8-.02-3.23-.02-6.45,0-9.68,0-.24.24-.47.42-.79,2.44.38,2.93-1.3,3.12-3.27,2.96-.17,5.81-.06,8.66-.08,2.86-.02,5.72,0,8.58,0,2.84,0,5.67,0,8.6,0ZM45.99,19.29c-1.78-.41-2.92-1.5-3.28-3.28h-23.02c-.38,1.89-1.59,2.89-3.34,3.31v8.06c1.87.35,3.01,1.49,3.36,3.28h23.03c.31-1.89,1.56-2.86,3.25-3.31v-8.06Z"/>
  <path class="cls-1" d="M50.19,4.75h1.23c.03.69.06,1.27.07,1.86.03,1.38.14,1.5,1.47,1.59.27.02.54.06.93.1v1.02c-1.02.33-1.9.65-2.81.89-.98.26-2.08-.77-1.58-1.57.76-1.21.4-2.51.69-3.9Z"/>
  <path class="cls-1" d="M24.53,23.37c-.12-3.68,2.89-6.74,6.7-6.77,3.66-.03,6.62,3.03,6.68,6.69.05,3.13-2.36,6.67-6.6,6.76-3.86.08-6.84-3.01-6.78-6.68ZM36.33,23.36c0-2.9-2.27-5.21-5.13-5.2-2.8,0-5.24,2.45-5.2,5.21.04,2.77,2.37,5.08,5.14,5.11,2.9.03,5.19-2.23,5.19-5.12Z"/>
  <path class="cls-1" d="M31.65,19.06c.13,1.2,1.61,1.35,1.18,2.55q-.73.3-1.71-.06c-.16.15-.35.31-.55.49.12.19.17.36.27.39.34.12.71.16,1.05.27,1.56.48,2.01,2.24.84,3.38-.39.38-.85.67-1.28,1,.04.11.08.21.12.32-.32-.11-.68-.16-.94-.35-.35-.26-.63-.63-.94-.95-.56-.56-.51-.87.24-1.48q1.4.54,1.94-.18c-.35-.14-.66-.32-1-.38-.9-.16-1.56-.6-1.77-1.5-.2-.87.05-1.62.84-2.16.24-.17.36-.52.59-.71.25-.21.57-.33,1.12-.64Z"/>
</svg>