<?xml version="1.0" encoding="UTF-8"?>
<svg id="Layer_1" xmlns="http://www.w3.org/2000/svg" viewBox="0 0 60 60">
  <defs>
    <style>
      .cls-1 {
        fill: #231f20;
      }
    </style>
  </defs>
  <path class="cls-1" d="M13.96,41.7c-4.67,0-8.3,5.08-8.3,9.45,0,5.91,6.25,5.91,8.3,5.91s8.3,0,8.3-5.91c0-4.36-3.62-9.45-8.3-9.45ZM13.96,54.52c-4.79,0-5.77-1.35-5.77-3.38,0-3.11,2.66-6.91,5.77-6.91s5.76,3.8,5.76,6.91c0,2.03-.98,3.38-5.76,3.38Z"/>
  <path class="cls-1" d="M13.96,32.29c-3.08,0-5.59,2.69-5.59,5.99s2.61,6.47,5.59,6.47,5.59-3.02,5.59-6.47-2.51-5.99-5.59-5.99ZM13.96,42.21c-1.57,0-3.06-1.91-3.06-3.93,0-1.9,1.37-3.45,3.06-3.45s3.06,1.55,3.06,3.45c0,2.02-1.49,3.93-3.06,3.93Z"/>
  <path class="cls-1" d="M46.04,41.7c-4.67,0-8.3,5.08-8.3,9.45,0,5.91,6.24,5.91,8.3,5.91s8.3,0,8.3-5.91c0-4.36-3.63-9.45-8.3-9.45ZM46.04,54.52c-4.78,0-5.76-1.35-5.76-3.38,0-3.11,2.66-6.91,5.76-6.91s5.76,3.8,5.76,6.91c0,2.03-.98,3.38-5.76,3.38Z"/>
  <path class="cls-1" d="M46.04,32.29c-3.08,0-5.59,2.69-5.59,5.99s2.62,6.47,5.59,6.47,5.59-3.02,5.59-6.47-2.51-5.99-5.59-5.99ZM46.04,42.21c-1.57,0-3.06-1.91-3.06-3.93,0-1.9,1.37-3.45,3.06-3.45s3.06,1.55,3.06,3.45c0,2.02-1.49,3.93-3.06,3.93Z"/>
  <path class="cls-1" d="M30,14.42c-4.67,0-8.3,5.07-8.3,9.44,0,5.92,6.24,5.92,8.3,5.92s8.3,0,8.3-5.92c0-4.37-3.62-9.44-8.3-9.44ZM30,27.25c-4.78,0-5.76-1.35-5.76-3.38,0-3.11,2.66-6.91,5.76-6.91s5.76,3.8,5.76,6.91c0,2.03-.98,3.38-5.76,3.38Z"/>
  <path class="cls-1" d="M30,5.01c-3.08,0-5.59,2.68-5.59,5.99s2.61,6.47,5.59,6.47,5.59-3.02,5.59-6.47-2.51-5.99-5.59-5.99ZM30,14.93c-1.57,0-3.06-1.91-3.06-3.94,0-1.9,1.37-3.45,3.06-3.45s3.06,1.55,3.06,3.45c0,2.03-1.48,3.94-3.06,3.94Z"/>
  <path class="cls-1" d="M46.04,29.68c-5.15,0-9.65,2.8-12.07,6.96l-2.7-2.7v-3.68c7.1-.64,12.69-6.63,12.69-13.9,0-7.7-6.27-13.96-13.96-13.96s-13.96,6.26-13.96,13.96c0,7.27,5.59,13.26,12.7,13.9v3.68l-2.7,2.7c-2.42-4.16-6.93-6.96-12.07-6.96-7.7,0-13.96,6.26-13.96,13.96s6.26,13.96,13.96,13.96,13.96-6.26,13.96-13.96c0-1.59-.27-3.12-.76-4.54l2.84-2.84,2.85,2.84c-.49,1.42-.76,2.95-.76,4.54,0,7.7,6.26,13.96,13.96,13.96s13.96-6.26,13.96-13.96-6.26-13.96-13.96-13.96ZM13.96,55.07c-6.3,0-11.42-5.13-11.42-11.43s5.12-11.42,11.42-11.42,11.42,5.13,11.42,11.42-5.13,11.43-11.42,11.43ZM18.58,16.36c0-6.3,5.12-11.42,11.42-11.42s11.42,5.12,11.42,11.42-5.12,11.42-11.42,11.42-11.42-5.12-11.42-11.42ZM46.04,55.07c-6.3,0-11.43-5.13-11.43-11.43s5.13-11.42,11.43-11.42,11.42,5.13,11.42,11.42-5.12,11.43-11.42,11.43Z"/>
</svg>