<svg width="1366" height="693" viewBox="0 0 1366 693" fill="none" xmlns="http://www.w3.org/2000/svg">
<mask id="mask0_1255_5587" style="mask-type:alpha" maskUnits="userSpaceOnUse" x="0" y="0" width="1366" height="693">
<path d="M0 0H1365.85V541.632V692.5L0 535.5V0Z" fill="#130C0A"/>
</mask>
<g mask="url(#mask0_1255_5587)">
<path d="M1348.59 465.573L1169.67 305.924L988.213 459.765L982 689.491L1165.97 535.66L1343.57 695.317L1348.59 465.573Z" fill="#EEEEEE" fill-opacity="0.1"/>
<path d="M761.211 495.241L667.4 411.533L572.257 492.196L569 612.646L665.459 531.989L758.578 615.701L761.211 495.241Z" fill="#EEEEEE" fill-opacity="0.1"/>
<path d="M810.727 164.209L753.269 112.939L694.995 162.344L693 236.118L752.08 186.717L809.114 237.99L810.727 164.209Z" fill="#EEEEEE" fill-opacity="0.15"/>
<path d="M1208.65 276.767L1169.29 241.643L1129.37 275.489L1128 326.029L1168.47 292.186L1207.55 327.311L1208.65 276.767Z" fill="#EEEEEE" fill-opacity="0.15"/>
<path d="M1169.91 310.8L922.505 90.0434L671.591 302.77L663 620.425L917.386 407.713L1162.96 628.482L1169.91 310.8Z" fill="#EEEEEE" fill-opacity="0.1"/>
</g>
</svg>
