<svg version="1.2" xmlns="http://www.w3.org/2000/svg" viewBox="0 0 510 509" width="510" height="509">
	<title>noun-play-113953-svg</title>
	<style>
		.s0 { fill: #ffffff } 
	</style>
	<g id="Layer">
		<path id="Layer" fill-rule="evenodd" class="s0" d="m507 256.7c-0.6 67.2-26.9 130.5-75 177.5-47.6 47-110.4 72.8-177 72.8-67.8 0-131.6-26.9-179.2-75-47.6-48.2-73.4-111.5-72.8-178.7 0.6-67.2 26.9-130.5 75-177.5 47.6-47 110.4-72.8 177-72.8 67.8 0 131.6 26.9 179.2 75 47.6 47.6 73.4 111.5 72.8 178.7zm-83.4-1.7c0-12.9-6.2-24.1-16.8-30.8l-197.2-123.2c-5.6-3.9-12.3-5.6-19-5.6-20.2 0-36.4 16.2-36.4 36.4v246.4c0 20.2 16.2 36.4 36.4 36.4 6.7 0 13.4-2.2 19-5.6l197.2-123.2c10.6-6.7 16.8-18.5 16.8-30.8z"/>
		<g id="w">
			<path id="Layer" class="s0" d="m-6.2 617.9q-1.5 0.7-3.1 1.1-1.5 0.4-3.2 0.4-5.1 0-8.1-2.9-3-2.8-3-7.7 0-4.9 3-7.7 3-2.9 8.1-2.9 1.7 0 3.2 0.4 1.6 0.4 3.1 1.1v4.3q-1.5-1-2.9-1.5-1.4-0.5-3-0.5-2.8 0-4.4 1.8-1.7 1.8-1.7 5 0 3.2 1.7 5 1.6 1.8 4.4 1.8 1.6 0 3-0.5 1.4-0.4 2.9-1.4z"/>
		</g>
		<g id="c">
			<path id="Layer" class="s0" d="m9.3 607.9q-0.7-0.3-1.3-0.5-0.6-0.1-1.3-0.1-1.9 0-2.9 1.2-1 1.2-1 3.4v7.1h-4.9v-15.3h4.9v2.5q0.9-1.5 2.2-2.2 1.2-0.7 2.9-0.7 0.2 0 0.5 0 0.3 0.1 0.9 0.1z"/>
		</g>
		<g id="a">
			<path id="Layer" fill-rule="evenodd" class="s0" d="m27 611.3v1.4h-11.5q0.2 1.7 1.3 2.6 1.1 0.8 3 0.8 1.5 0 3.1-0.4 1.7-0.5 3.4-1.4v3.8q-1.8 0.6-3.5 0.9-1.7 0.4-3.5 0.4-4.1 0-6.4-2.1-2.3-2.1-2.3-5.9 0-3.8 2.2-5.9 2.3-2.2 6.2-2.2 3.7 0 5.8 2.2 2.2 2.2 2.2 5.8zm-5-1.6q0-1.4-0.8-2.3-0.9-0.8-2.2-0.8-1.4 0-2.3 0.8-0.9 0.8-1.1 2.3z"/>
		</g>
		<g id="e">
			<path id="Layer" fill-rule="evenodd" class="s0" d="m45 610.3v8.7h-4.9v-2.3q-1 1.4-2.2 2.1-1.2 0.6-3 0.6-2.4 0-3.9-1.4-1.5-1.4-1.4-3.6-0.1-2.7 1.8-3.9 1.9-1.3 5.8-1.3h2.9v-0.4q0-1.1-0.9-1.7-0.9-0.5-2.9-0.5-1.5 0-2.9 0.3-1.4 0.3-2.5 0.9v-3.7q1.6-0.4 3.1-0.6 1.6-0.2 3.2-0.2 4.2 0 6 1.7 1.8 1.6 1.8 5.3zm-7.4 1.8q-1.6 0-2.3 0.5-0.8 0.5-0.8 1.6 0 0.9 0.6 1.4 0.6 0.5 1.7 0.5 1.4 0 2.4-0.9 0.9-1 0.9-2.5v-0.6z"/>
		</g>
		<g id="d">
			<path id="Layer" class="s0" d="m54.9 599.3v4.4h5.1v3.5h-5.1v6.5q0 1.1 0.5 1.4 0.4 0.4 1.6 0.4h2.6v3.5h-4.2q-2.9 0-4.2-1.2-1.2-1.2-1.2-4.1v-6.5h-2.4v-3.5h2.4v-4.4z"/>
		</g>
		<g id="a">
			<path id="Layer" fill-rule="evenodd" class="s0" d="m78.3 611.3v1.4h-11.5q0.2 1.7 1.3 2.6 1 0.8 3 0.8 1.5 0 3.1-0.4 1.6-0.5 3.3-1.4v3.8q-1.7 0.6-3.4 0.9-1.8 0.4-3.5 0.4-4.2 0-6.5-2.1-2.3-2.1-2.3-5.9 0-3.8 2.3-5.9 2.3-2.2 6.2-2.2 3.6 0 5.8 2.2 2.2 2.2 2.2 5.8zm-5.1-1.6q0-1.4-0.8-2.3-0.8-0.8-2.1-0.8-1.4 0-2.3 0.8-0.9 0.8-1.1 2.3z"/>
		</g>
		<g id="l">
			<path id="Layer" fill-rule="evenodd" class="s0" d="m92.4 605.9v-8.2h4.9v21.3h-4.9v-2.2q-1 1.3-2.2 2-1.3 0.6-2.9 0.6-2.8 0-4.6-2.3-1.8-2.2-1.8-5.7 0-3.6 1.8-5.8 1.8-2.3 4.6-2.3 1.6 0 2.8 0.7 1.3 0.6 2.3 1.9zm-3.2 9.9q1.5 0 2.4-1.1 0.8-1.1 0.8-3.3 0-2.2-0.8-3.4-0.9-1.1-2.4-1.1-1.6 0-2.4 1.1-0.9 1.2-0.9 3.4 0 2.1 0.9 3.3 0.8 1.1 2.4 1.1z"/>
		</g>
		<g id="k">
			<path id="Layer" fill-rule="evenodd" class="s0" d="m116.7 605.9q1-1.3 2.2-1.9 1.2-0.7 2.8-0.7 2.9 0 4.7 2.3 1.8 2.2 1.8 5.8 0 3.5-1.8 5.7-1.8 2.3-4.7 2.3-1.6 0-2.8-0.6-1.2-0.7-2.2-2v2.2h-4.9v-21.3h4.9zm3.2 9.9q1.6 0 2.4-1.1 0.8-1.2 0.8-3.3 0-2.2-0.8-3.4-0.8-1.1-2.4-1.1-1.6 0-2.4 1.1-0.8 1.2-0.8 3.4 0 2.1 0.8 3.3 0.8 1.1 2.4 1.1z"/>
		</g>
		<g id="j">
			<path id="Layer" class="s0" d="m129.8 603.7h4.9l4.1 10.4 3.5-10.4h4.9l-6.4 16.8q-1 2.5-2.3 3.5-1.3 1-3.4 1h-2.9v-3.2h1.6q1.2 0 1.8-0.4 0.6-0.4 0.9-1.4l0.1-0.4z"/>
		</g>
		<g id="i">
			<path id="Layer" class="s0" d="m160 598.6h6.7l4.7 10.9 4.6-10.9h6.7v20.4h-5v-14.9l-4.7 11h-3.3l-4.7-11v14.9h-5z"/>
		</g>
		<g id="e">
			<path id="Layer" fill-rule="evenodd" class="s0" d="m202 610.3v8.7h-4.9v-2.3q-1 1.4-2.2 2.1-1.3 0.6-3 0.6-2.4 0-3.9-1.4-1.5-1.4-1.5-3.6 0-2.7 1.9-3.9 1.8-1.3 5.8-1.3h2.9v-0.4q0-1.1-0.9-1.7-1-0.5-2.9-0.5-1.6 0-2.9 0.3-1.4 0.3-2.5 0.9v-3.7q1.5-0.4 3.1-0.6 1.6-0.2 3.2-0.2 4.1 0 6 1.7 1.8 1.6 1.8 5.3zm-7.5 1.8q-1.5 0-2.3 0.5-0.7 0.5-0.7 1.6 0 0.9 0.6 1.4 0.6 0.5 1.7 0.5 1.4 0 2.3-0.9 1-1 1-2.5v-0.6z"/>
		</g>
		<g id="c">
			<path id="Layer" class="s0" d="m217.9 607.9q-0.6-0.3-1.3-0.5-0.6-0.1-1.2-0.1-1.9 0-2.9 1.2-1 1.2-1 3.4v7.1h-4.9v-15.3h4.9v2.5q0.9-1.5 2.1-2.2 1.2-0.7 3-0.7 0.2 0 0.5 0 0.3 0.1 0.8 0.1z"/>
		</g>
		<g id="a">
			<path id="Layer" fill-rule="evenodd" class="s0" d="m235.7 611.3v1.4h-11.5q0.2 1.7 1.3 2.6 1 0.8 2.9 0.8 1.6 0 3.2-0.4 1.6-0.5 3.3-1.4v3.8q-1.7 0.6-3.4 0.9-1.8 0.4-3.5 0.4-4.2 0-6.5-2.1-2.3-2.1-2.3-5.9 0-3.8 2.3-5.9 2.2-2.2 6.2-2.2 3.6 0 5.8 2.2 2.2 2.2 2.2 5.8zm-5.1-1.6q0-1.4-0.8-2.3-0.8-0.8-2.1-0.8-1.4 0-2.3 0.8-0.9 0.8-1.1 2.3z"/>
		</g>
		<g id="h">
			<path id="Layer" class="s0" d="m239.4 597.7h4.9v11.6l5.6-5.6h5.7l-7.5 7 8.1 8.3h-6l-5.9-6.4v6.4h-4.9z"/>
		</g>
		<g id="g">
			<path id="Layer" fill-rule="evenodd" class="s0" d="m268 598.6h8.7q3.9 0 6 1.7 2 1.8 2.1 5-0.1 3.2-2.1 4.9-2.1 1.7-6 1.7h-3.5v7.1h-5.2zm5.2 3.8v5.7h2.9q1.6 0 2.4-0.7 0.8-0.8 0.8-2.1 0-1.4-0.8-2.2-0.8-0.7-2.4-0.7z"/>
		</g>
		<g id="b">
			<path id="Layer" fill-rule="evenodd" class="s0" d="m295.5 603.3q4 0 6.2 2.2 2.2 2.1 2.2 5.9 0 3.7-2.2 5.9-2.2 2.1-6.2 2.1-3.9 0-6.2-2.1-2.2-2.2-2.2-5.9 0-3.8 2.2-5.9 2.3-2.2 6.2-2.2zm0 3.5q-1.6 0-2.4 1.2-0.9 1.2-0.9 3.4 0 2.2 0.9 3.3 0.8 1.2 2.4 1.2 1.6 0 2.5-1.2 0.8-1.1 0.8-3.3 0-2.2-0.8-3.4-0.9-1.2-2.5-1.2z"/>
		</g>
		<g id="v">
			<path id="Layer" class="s0" d="m307.5 597.7h4.9v21.3h-4.9z"/>
		</g>
		<g id="e">
			<path id="Layer" fill-rule="evenodd" class="s0" d="m331.4 610.3v8.7h-4.9v-2.3q-1 1.4-2.2 2.1-1.3 0.6-3 0.6-2.4 0-3.9-1.4-1.5-1.4-1.5-3.6 0-2.7 1.9-3.9 1.8-1.3 5.8-1.3h2.9v-0.4q0-1.1-0.9-1.7-0.9-0.5-2.9-0.5-1.6 0-2.9 0.3-1.4 0.3-2.5 0.9v-3.7q1.5-0.4 3.1-0.6 1.6-0.2 3.2-0.2 4.1 0 6 1.7 1.8 1.6 1.8 5.3zm-7.4 1.8q-1.6 0-2.4 0.5-0.7 0.5-0.7 1.6 0 0.9 0.6 1.4 0.6 0.5 1.7 0.5 1.4 0 2.3-0.9 1-1 1-2.5v-0.6z"/>
		</g>
		<g id="h">
			<path id="Layer" class="s0" d="m336 597.7h4.9v11.6l5.6-5.6h5.7l-7.5 7 8.1 8.3h-6l-5.9-6.4v6.4h-4.9z"/>
		</g>
		<g id="b">
			<path id="Layer" fill-rule="evenodd" class="s0" d="m361.9 603.3q3.9 0 6.2 2.2 2.2 2.1 2.2 5.9 0 3.7-2.2 5.9-2.3 2.1-6.2 2.1-4 0-6.2-2.1-2.2-2.2-2.2-5.9 0-3.8 2.2-5.9 2.2-2.2 6.2-2.2zm0 3.5q-1.6 0-2.5 1.2-0.9 1.2-0.9 3.4 0 2.2 0.9 3.3 0.9 1.2 2.5 1.2 1.6 0 2.4-1.2 0.9-1.1 0.9-3.3 0-2.2-0.9-3.4-0.8-1.2-2.4-1.2z"/>
		</g>
		<g id="u">
			<path id="Layer" class="s0" d="m371.9 603.7h4.9l3.8 10.6 3.8-10.6h4.9l-6 15.3h-5.4z"/>
		</g>
		<g id="t">
			<path id="Layer" class="s0" d="m392.1 603.7h4.9v15.3h-4.9zm0-6h4.9v4h-4.9z"/>
		</g>
		<g id="f">
			<path id="Layer" class="s0" d="m414.1 604.2v4q-1-0.7-2-1.1-1-0.3-2.1-0.3-2.1 0-3.2 1.2-1.2 1.2-1.2 3.4 0 2.1 1.2 3.3 1.1 1.2 3.2 1.2 1.1 0 2.1-0.3 1.1-0.4 2-1.1v4q-1.2 0.5-2.4 0.7-1.1 0.2-2.3 0.2-4.2 0-6.5-2.1-2.4-2.2-2.4-5.9 0-3.8 2.4-6 2.3-2.1 6.5-2.1 1.2 0 2.3 0.2 1.2 0.2 2.4 0.7z"/>
		</g>
		<g id="s">
			<path id="Layer" class="s0" d="m-12.6 625.7v3.2h-2.7q-1 0-1.4 0.4-0.4 0.4-0.4 1.3v1.1h4.1v3.5h-4.1v11.8h-4.9v-11.8h-2.5v-3.5h2.5v-1.1q0-2.5 1.4-3.7 1.3-1.2 4.3-1.2z"/>
		</g>
		<g id="c">
			<path id="Layer" class="s0" d="m0.9 635.9q-0.6-0.3-1.3-0.5-0.6-0.1-1.2-0.1-1.9 0-3 1.2-1 1.2-1 3.4v7.1h-4.9v-15.3h4.9v2.5q1-1.5 2.2-2.2 1.2-0.7 2.9-0.7 0.3 0 0.6 0 0.3 0.1 0.8 0.1z"/>
		</g>
		<g id="b">
			<path id="Layer" fill-rule="evenodd" class="s0" d="m10.6 631.3q4 0 6.2 2.2 2.2 2.1 2.2 5.9 0 3.7-2.2 5.9-2.2 2.1-6.2 2.1-3.9 0-6.2-2.1-2.2-2.2-2.2-5.9 0-3.8 2.2-5.9 2.3-2.2 6.2-2.2zm0 3.5q-1.6 0-2.5 1.2-0.8 1.2-0.8 3.4 0 2.2 0.8 3.3 0.9 1.2 2.5 1.2 1.6 0 2.5-1.2 0.8-1.1 0.8-3.3 0-2.2-0.8-3.4-0.9-1.2-2.5-1.2z"/>
		</g>
		<g id="r">
			<path id="Layer" class="s0" d="m36.8 634.2q0.9-1.4 2.2-2.1 1.3-0.8 2.8-0.8 2.6 0 4 1.7 1.4 1.6 1.4 4.7v9.3h-4.9v-8-0.3q0-0.2 0-0.6 0-1.6-0.5-2.4-0.5-0.7-1.5-0.7-1.4 0-2.2 1.2-0.8 1.1-0.8 3.3v7.5h-4.9v-8q0-2.5-0.4-3.3-0.5-0.7-1.6-0.7-1.4 0-2.2 1.2-0.7 1.1-0.7 3.3v7.5h-4.9v-15.3h4.9v2.2q0.9-1.3 2-1.9 1.2-0.7 2.6-0.7 1.6 0 2.8 0.8 1.2 0.7 1.9 2.1z"/>
		</g>
		<g id="d">
			<path id="Layer" class="s0" d="m66.9 627.3v4.4h5v3.5h-5v6.5q0 1.1 0.4 1.4 0.4 0.4 1.6 0.4h2.6v3.5h-4.2q-2.9 0-4.1-1.2-1.3-1.2-1.3-4.1v-6.5h-2.4v-3.5h2.4v-4.4z"/>
		</g>
		<g id="q">
			<path id="Layer" class="s0" d="m90.3 637.7v9.3h-4.9v-7.1q0-2-0.1-2.8-0.1-0.7-0.3-1.1-0.3-0.5-0.8-0.7-0.5-0.3-1.1-0.3-1.6 0-2.4 1.2-0.9 1.2-0.9 3.3v7.5h-4.9v-21.3h4.9v8.2q1.1-1.3 2.3-1.9 1.3-0.7 2.8-0.7 2.6 0 4 1.7 1.4 1.6 1.4 4.7z"/>
		</g>
		<g id="a">
			<path id="Layer" fill-rule="evenodd" class="s0" d="m110.1 639.3v1.4h-11.4q0.1 1.7 1.2 2.6 1.1 0.8 3 0.8 1.5 0 3.1-0.4 1.7-0.5 3.4-1.4v3.8q-1.8 0.6-3.5 0.9-1.7 0.4-3.5 0.4-4.1 0-6.4-2.1-2.3-2.1-2.3-5.9 0-3.8 2.2-5.9 2.3-2.2 6.3-2.2 3.6 0 5.7 2.2 2.2 2.2 2.2 5.8zm-5-1.6q0-1.4-0.8-2.3-0.8-0.8-2.2-0.8-1.4 0-2.3 0.8-0.9 0.8-1.1 2.3z"/>
		</g>
		<g id="p">
			<path id="Layer" class="s0" d="m123.8 626.6h5.9l7.4 14v-14h5v20.4h-5.9l-7.4-14v14h-5z"/>
		</g>
		<g id="b">
			<path id="Layer" fill-rule="evenodd" class="s0" d="m154.3 631.3q3.9 0 6.2 2.2 2.2 2.1 2.2 5.9 0 3.7-2.2 5.9-2.3 2.1-6.2 2.1-4 0-6.2-2.1-2.3-2.2-2.3-5.9 0-3.8 2.3-5.9 2.2-2.2 6.2-2.2zm0 3.5q-1.6 0-2.5 1.2-0.9 1.2-0.9 3.4 0 2.2 0.9 3.3 0.9 1.2 2.5 1.2 1.6 0 2.4-1.2 0.9-1.1 0.9-3.3 0-2.2-0.9-3.4-0.8-1.2-2.4-1.2z"/>
		</g>
		<g id="o">
			<path id="Layer" class="s0" d="m166.1 641v-9.3h4.9v1.5q0 1.3 0 3.1 0 1.9 0 2.5 0 1.9 0.1 2.7 0.1 0.8 0.3 1.2 0.3 0.5 0.8 0.7 0.5 0.3 1.1 0.3 1.5 0 2.4-1.2 0.9-1.2 0.9-3.3v-7.5h4.9v15.3h-4.9v-2.2q-1.1 1.3-2.4 2-1.2 0.6-2.7 0.6-2.7 0-4-1.6-1.4-1.7-1.4-4.8z"/>
		</g>
		<g id="n">
			<path id="Layer" class="s0" d="m201.6 637.7v9.3h-5v-7.1q0-2-0.1-2.8 0-0.7-0.3-1.1-0.2-0.5-0.7-0.7-0.5-0.3-1.2-0.3-1.5 0-2.4 1.2-0.8 1.2-0.8 3.3v7.5h-4.9v-15.3h4.9v2.2q1.1-1.3 2.3-1.9 1.3-0.7 2.8-0.7 2.6 0 4 1.7 1.4 1.6 1.4 4.7z"/>
		</g>
		<g id="g">
			<path id="Layer" fill-rule="evenodd" class="s0" d="m216.1 626.6h8.7q3.9 0 6 1.7 2.1 1.8 2.1 5 0 3.2-2.1 4.9-2.1 1.7-6 1.7h-3.5v7.1h-5.2zm5.2 3.8v5.7h2.9q1.6 0 2.4-0.7 0.8-0.8 0.8-2.1 0-1.4-0.8-2.2-0.8-0.7-2.4-0.7z"/>
		</g>
		<g id="c">
			<path id="Layer" class="s0" d="m247.7 635.9q-0.6-0.3-1.2-0.5-0.7-0.1-1.3-0.1-1.9 0-2.9 1.2-1 1.2-1 3.4v7.1h-4.9v-15.3h4.9v2.5q0.9-1.5 2.1-2.2 1.3-0.7 3-0.7 0.2 0 0.5 0 0.3 0.1 0.8 0.1z"/>
		</g>
		<g id="b">
			<path id="Layer" fill-rule="evenodd" class="s0" d="m257.5 631.3q3.9 0 6.1 2.2 2.2 2.1 2.3 5.9-0.1 3.7-2.3 5.9-2.2 2.1-6.1 2.1-4 0-6.2-2.1-2.3-2.2-2.3-5.9 0-3.8 2.3-5.9 2.2-2.2 6.2-2.2zm0 3.5q-1.7 0-2.5 1.2-0.9 1.2-0.9 3.4 0 2.2 0.9 3.3 0.8 1.2 2.5 1.2 1.6 0 2.4-1.2 0.9-1.1 0.9-3.3 0-2.2-0.9-3.4-0.8-1.2-2.4-1.2z"/>
		</g>
		<g id="m">
			<path id="Layer" class="s0" d="m269.4 631.7h4.9v15q0 3.1-1.5 4.7-1.4 1.6-4.3 1.6h-2.4v-3.2h0.9q1.4 0 1.9-0.6 0.5-0.6 0.5-2.5zm0-5.9h4.9v4h-4.9z"/>
		</g>
		<g id="a">
			<path id="Layer" fill-rule="evenodd" class="s0" d="m294.3 639.3v1.4h-11.5q0.2 1.7 1.3 2.6 1.1 0.8 3 0.8 1.5 0 3.1-0.4 1.7-0.5 3.4-1.4v3.8q-1.8 0.6-3.5 0.9-1.7 0.4-3.5 0.4-4.1 0-6.4-2.1-2.3-2.1-2.3-5.9 0-3.8 2.2-5.9 2.3-2.2 6.2-2.2 3.7 0 5.8 2.2 2.2 2.2 2.2 5.8zm-5-1.6q0-1.4-0.8-2.3-0.9-0.8-2.2-0.8-1.4 0-2.3 0.8-0.9 0.8-1.1 2.3z"/>
		</g>
		<g id="f">
			<path id="Layer" class="s0" d="m310.4 632.2v4q-1-0.7-2-1.1-1-0.3-2.1-0.3-2.1 0-3.2 1.2-1.2 1.2-1.2 3.4 0 2.1 1.2 3.3 1.1 1.2 3.2 1.2 1.1 0 2.2-0.3 1-0.4 1.9-1.1v4q-1.2 0.5-2.4 0.7-1.1 0.2-2.3 0.2-4.2 0-6.5-2.1-2.4-2.2-2.3-5.9-0.1-3.8 2.3-6 2.3-2.1 6.5-2.1 1.2 0 2.3 0.2 1.2 0.2 2.4 0.7z"/>
		</g>
		<g id="d">
			<path id="Layer" class="s0" d="m319.9 627.3v4.4h5.1v3.5h-5.1v6.5q0 1.1 0.5 1.4 0.4 0.4 1.6 0.4h2.6v3.5h-4.2q-2.9 0-4.2-1.2-1.2-1.2-1.2-4.1v-6.5h-2.4v-3.5h2.4v-4.4z"/>
		</g>
	</g>
</svg>