<?xml version="1.0" encoding="UTF-8"?>
<svg id="Layer_1" xmlns="http://www.w3.org/2000/svg" viewBox="0 0 60 60">
  <defs>
    <style>
      .cls-1 {
        fill: #231f20;
      }
    </style>
  </defs>
  <path class="cls-1" d="M39.08,22.36h-18.59c-.68,0-1.22-.55-1.22-1.22s.54-1.22,1.22-1.22h18.59c.68,0,1.22.55,1.22,1.22s-.55,1.22-1.22,1.22Z"/>
  <path class="cls-1" d="M25.97,15.34H9.47c-.67,0-1.22-.55-1.22-1.22s.55-1.22,1.22-1.22h16.5c.68,0,1.22.54,1.22,1.22s-.54,1.22-1.22,1.22Z"/>
  <path class="cls-1" d="M31.45,29.27h-10.96c-.68,0-1.22-.55-1.22-1.22s.54-1.22,1.22-1.22h10.96c.67,0,1.22.54,1.22,1.22s-.55,1.22-1.22,1.22Z"/>
  <path class="cls-1" d="M31.45,36.19h-10.96c-.68,0-1.22-.55-1.22-1.22s.54-1.22,1.22-1.22h10.96c.67,0,1.22.55,1.22,1.22s-.55,1.22-1.22,1.22Z"/>
  <path class="cls-1" d="M45.59,60c-6.18,0-11.2-5.03-11.2-11.2s5.02-11.2,11.2-11.2,11.2,5.02,11.2,11.2-5.03,11.2-11.2,11.2ZM45.59,39.24c-5.27,0-9.56,4.29-9.56,9.56s4.28,9.56,9.56,9.56,9.56-4.29,9.56-9.56-4.29-9.56-9.56-9.56Z"/>
  <path class="cls-1" d="M28.96,48.8c0-.41.02-.82.05-1.22H9.47c-.67,0-1.22.55-1.22,1.22s.55,1.22,1.22,1.22h19.54c-.03-.41-.05-.81-.05-1.22Z"/>
  <path class="cls-1" d="M31.09,40.66h-10.61c-.68,0-1.22.55-1.22,1.22s.54,1.22,1.22,1.22h9.48c.31-.85.69-1.66,1.13-2.44Z"/>
  <path class="cls-1" d="M37.98,54.89H5.65V2.44h25.82v11.68c0,.68.55,1.22,1.22,1.22h11.67v22.78c.41-.03.81-.05,1.22-.05s.82.02,1.22.05V14.12c0-.08-.01-.15-.02-.22,0,0,0-.01,0-.02-.02-.1-.06-.2-.1-.3-.02-.03-.03-.04-.04-.06-.05-.1-.12-.19-.19-.26L33.55.36c-.07-.08-.16-.14-.26-.19-.02-.01-.04-.03-.06-.04-.09-.05-.19-.08-.3-.1h-.02c-.08-.02-.15-.03-.22-.03H4.43c-.68,0-1.23.55-1.23,1.22v54.88c0,.68.55,1.22,1.23,1.22h34.76c-.47-.77-.87-1.59-1.21-2.44ZM33.91,4.17l8.73,8.73h-8.73V4.17Z"/>
  <path class="cls-1" d="M12.72,29.27c-.35,0-.69-.15-.92-.43l-3.26-3.8c-.44-.51-.38-1.28.14-1.72.51-.44,1.28-.38,1.72.13l1.99,2.32,2.27-5.14c.28-.62.99-.9,1.61-.62.62.27.9.99.62,1.61l-3.04,6.91c-.17.39-.53.66-.95.72-.06,0-.11.01-.18.01Z"/>
  <path class="cls-1" d="M45.29,53.86c-.35,0-.69-.15-.92-.43l-3.26-3.8c-.44-.51-.38-1.28.14-1.72.51-.44,1.28-.38,1.72.13l1.99,2.32,2.27-5.14c.28-.62.99-.9,1.61-.62.62.27.9.99.62,1.61l-3.04,6.91c-.17.39-.53.66-.95.72-.06,0-.11.01-.18.01Z"/>
  <path class="cls-1" d="M12.72,43.1c-.35,0-.69-.15-.92-.43l-3.26-3.8c-.44-.52-.38-1.28.14-1.72.51-.44,1.28-.38,1.72.14l1.99,2.32,2.27-5.14c.28-.62.99-.9,1.61-.62.62.27.9.99.62,1.61l-3.04,6.91c-.17.38-.53.66-.95.72-.06,0-.11.01-.18.01Z"/>
</svg>