<?xml version="1.0" encoding="UTF-8"?>
<svg id="Layer_1" xmlns="http://www.w3.org/2000/svg" viewBox="0 0 60 60">
  <defs>
    <style>
      .cls-1 {
        fill: #231f20;
      }
    </style>
  </defs>
  <g>
    <path class="cls-1" d="M20.97,24.37c-.13-.06-.34-.14-.62-.22v-1.39c.08.02.17.04.25.07.16.06.29.08.38.08.11,0,.2-.04.27-.11.07-.08.1-.17.1-.3,0-.09-.03-.17-.1-.23-.18-.16-.47-.27-.89-.33v-.31c0-.24-.19-.43-.43-.43s-.43.19-.43.43v.32c-.39.08-.7.23-.93.45-.3.29-.46.66-.46,1.09s.17.74.51.96c.14.09.31.17.51.24.07.02.2.06.36.1v1.65c-.16-.04-.33-.08-.48-.13-.25-.08-.43-.12-.55-.12-.11,0-.2.04-.26.1-.07.08-.11.17-.11.28s.04.21.13.29c.23.2.66.33,1.28.38v.3c0,.24.19.43.43.43s.43-.2.43-.43v-.34c.39-.08.7-.22.93-.44.33-.3.49-.67.49-1.13,0-.28-.05-.51-.16-.68-.14-.24-.36-.44-.64-.58ZM19.48,23.85c-.28-.15-.42-.32-.42-.5,0-.24.14-.43.42-.56v1.07ZM20.35,26.35v-1.26c.3.16.45.35.45.57,0,.31-.15.54-.45.69Z"/>
    <path class="cls-1" d="M19.8,19.67c-2.72,0-4.92,2.21-4.92,4.93s2.21,4.92,4.92,4.92,4.93-2.21,4.93-4.92-2.21-4.93-4.93-4.93ZM19.8,28.66c-2.24,0-4.06-1.82-4.06-4.06s1.82-4.06,4.06-4.06,4.06,1.82,4.06,4.06-1.82,4.06-4.06,4.06Z"/>
  </g>
  <g>
    <path class="cls-1" d="M32.58,17.41c-.13-.06-.34-.14-.62-.22v-1.39c.08.02.17.04.25.07.16.06.29.08.38.08.11,0,.2-.04.27-.11.07-.08.1-.17.1-.3,0-.09-.03-.17-.1-.23-.18-.16-.47-.27-.89-.33v-.31c0-.24-.19-.43-.43-.43s-.43.19-.43.43v.32c-.39.08-.7.23-.93.45-.3.29-.46.66-.46,1.09s.17.74.51.96c.14.09.31.17.51.24.07.02.2.06.36.1v1.65c-.16-.04-.33-.08-.48-.13-.25-.08-.43-.12-.55-.12-.11,0-.2.04-.26.1-.07.08-.11.17-.11.28s.04.21.13.29c.23.2.66.33,1.28.38v.3c0,.24.19.43.43.43s.43-.2.43-.43v-.34c.39-.08.7-.22.93-.44.33-.3.49-.67.49-1.13,0-.28-.05-.51-.16-.68-.14-.24-.36-.44-.64-.58ZM31.09,16.89c-.28-.15-.42-.32-.42-.5,0-.24.14-.43.42-.56v1.07ZM31.96,19.38v-1.26c.3.16.45.35.45.57,0,.31-.15.54-.45.69Z"/>
    <path class="cls-1" d="M31.41,12.71c-2.72,0-4.92,2.21-4.92,4.93s2.21,4.92,4.92,4.92,4.93-2.21,4.93-4.92-2.21-4.93-4.93-4.93ZM31.41,21.69c-2.24,0-4.06-1.82-4.06-4.06s1.82-4.06,4.06-4.06,4.06,1.82,4.06,4.06-1.82,4.06-4.06,4.06Z"/>
  </g>
  <g>
    <path class="cls-1" d="M45.26,9.44c-.13-.06-.34-.14-.62-.22v-1.39c.08.02.17.04.25.07.16.06.29.08.38.08.11,0,.2-.04.27-.11.07-.08.1-.17.1-.3,0-.09-.03-.17-.1-.23-.18-.16-.47-.27-.89-.33v-.31c0-.24-.19-.43-.43-.43s-.43.19-.43.43v.32c-.39.08-.7.23-.93.45-.3.29-.46.66-.46,1.09s.17.74.51.96c.14.09.31.17.51.24.07.02.2.06.36.1v1.65c-.16-.04-.33-.08-.48-.13-.25-.08-.43-.12-.55-.12-.11,0-.2.04-.26.1-.07.08-.11.17-.11.28s.04.21.13.29c.23.2.66.33,1.28.38v.3c0,.24.19.43.43.43s.43-.2.43-.43v-.34c.39-.08.7-.22.93-.44.33-.3.49-.67.49-1.13,0-.28-.05-.51-.16-.68-.14-.24-.36-.44-.64-.58ZM43.78,8.92c-.28-.15-.42-.32-.42-.5,0-.24.14-.43.42-.56v1.07ZM44.64,11.41v-1.26c.3.16.45.35.45.57,0,.31-.15.54-.45.69Z"/>
    <path class="cls-1" d="M44.1,4.74c-2.72,0-4.92,2.21-4.92,4.93s2.21,4.92,4.92,4.92,4.93-2.21,4.93-4.92-2.21-4.93-4.93-4.93ZM44.1,13.72c-2.24,0-4.06-1.82-4.06-4.06s1.82-4.06,4.06-4.06,4.06,1.82,4.06,4.06-1.82,4.06-4.06,4.06Z"/>
  </g>
  <path class="cls-1" d="M59.94,56.1c-.04-.1-.1-.19-.18-.26l-3.06-3.06c-.31-.31-.82-.31-1.13,0-.31.31-.31.82,0,1.13l1.7,1.7H5.78l8.81-8.81c.31-.31.31-.82,0-1.12-.31-.31-.81-.31-1.12,0l-8.81,8.81V2.46l1.7,1.7c.16.16.36.23.56.23s.41-.07.56-.23c.31-.31.31-.81,0-1.12L4.42-.03c-.07-.07-.16-.14-.26-.18,0,0-.01,0-.01,0-.09-.03-.19-.05-.29-.05s-.2.02-.29.05c0,0-.01,0-.01,0-.1.04-.19.1-.26.18L.23,3.03c-.31.31-.31.82,0,1.12.16.16.36.23.56.23s.41-.07.56-.23l1.7-1.7v53.95c0,.11.02.2.06.29h0c.08.21.24.36.44.45,0,0,.01,0,.01,0,.09.03.19.05.29.05h53.43l-1.7,1.71c-.31.31-.31.82,0,1.12.16.16.36.23.56.23s.41-.08.56-.23l3.06-3.06c.07-.07.14-.16.18-.26,0,0,0,0,0-.01.03-.09.05-.19.05-.29,0-.1-.02-.2-.05-.29,0,0,0-.01,0-.01Z"/>
  <path class="cls-1" d="M49.6,21.02s-.02-.08-.03-.11c0-.01,0-.03-.01-.04,0-.02-.03-.04-.04-.07-.02-.03-.04-.07-.06-.1-.03-.03-.05-.06-.08-.09-.03-.02-.05-.05-.08-.07-.03-.02-.07-.04-.1-.06-.02-.01-.04-.03-.07-.04-.01,0-.02,0-.03-.01-.04-.01-.07-.02-.11-.03-.04-.01-.08-.02-.12-.02-.01,0-.02,0-.04,0h-6.84c-.21,0-.41.08-.56.23l-2.6,2.6c-.05.05-.09.11-.13.17-.01.01-.01.03-.02.04-.03.06-.05.12-.07.19h0c-.01.05-.02.11-.02.16v29.59c0,.44.36.8.8.8h6.84c.05,0,.11,0,.16-.01.03-.01.06-.02.08-.03.02,0,.04-.01.06-.02.03-.01.06-.03.09-.04.02-.01.03-.02.05-.03.04-.03.08-.06.12-.1l2.6-2.6c.15-.15.23-.35.23-.57v-29.59s0-.03,0-.04c0-.04,0-.08-.01-.12ZM45.42,52.57h-5.25v-28h5.25v28ZM45.89,22.98h-4.59l1.01-1.01h4.59l-1,1.01ZM48.02,50.44l-1,1v-27.34l1-1.01v27.34Z"/>
  <path class="cls-1" d="M24.25,33.67s-.01-.08-.03-.12c0-.01,0-.02,0-.04-.01-.02-.03-.04-.04-.06-.02-.04-.04-.07-.06-.1-.02-.03-.05-.06-.08-.08-.03-.03-.05-.06-.08-.08-.03-.02-.07-.04-.11-.06-.02-.01-.04-.03-.06-.04-.01,0-.03,0-.04,0-.04-.02-.07-.02-.12-.03-.04,0-.08-.02-.12-.02-.01,0-.02,0-.03,0h-6.85c-.21,0-.41.08-.56.23l-2.6,2.6c-.05.05-.09.11-.13.17,0,.01-.02.03-.02.04-.03.06-.05.13-.07.19h0c-.01.06-.02.11-.02.16v16.92c0,.44.36.8.8.8h6.85c.05,0,.1,0,.15-.01.03,0,.06-.02.08-.03.02,0,.04-.01.07-.02.03-.01.06-.03.08-.05.02,0,.03-.01.05-.03.04-.03.08-.06.12-.1l2.6-2.6c.15-.15.23-.35.23-.56v-16.92s0-.03,0-.03c0-.04-.01-.08-.02-.12ZM20.08,52.55h-5.25v-15.32h5.25v15.32ZM20.55,35.62h-4.59l1-1h4.59l-1,1ZM22.68,50.42l-1.01,1v-14.67l1.01-1v14.67Z"/>
  <path class="cls-1" d="M36.91,27.57s-.02-.08-.03-.12c0-.01,0-.02,0-.03-.01-.02-.03-.04-.04-.06-.02-.03-.04-.07-.06-.1-.02-.03-.05-.06-.08-.08-.03-.03-.05-.05-.08-.08-.03-.02-.07-.04-.11-.06-.02-.01-.04-.03-.06-.04-.01,0-.02,0-.04-.01-.04-.01-.07-.02-.11-.03-.04,0-.08-.02-.12-.02-.01,0-.02,0-.04,0h-6.84c-.21,0-.42.08-.57.23l-2.6,2.59c-.05.05-.09.11-.13.17-.01.01-.01.03-.02.04-.03.06-.05.12-.06.19,0,0,0,0,0,0-.01.05-.02.1-.02.15v23.02c0,.44.36.8.8.8h6.84c.05,0,.11,0,.16-.01.03,0,.06-.02.08-.03.02,0,.04-.01.06-.02.03-.01.06-.03.09-.05.02-.01.03-.01.05-.03.04-.03.09-.06.12-.1l2.6-2.6c.15-.15.23-.35.23-.56v-23.02s0-.03,0-.04c0-.04-.01-.08-.02-.12ZM32.74,52.55h-5.25v-21.42h5.25v21.42ZM33.21,29.53h-4.59l1.01-1.01h4.59l-1,1.01ZM35.34,50.42l-1,1v-20.77l1-1v20.77Z"/>
</svg>