<?xml version="1.0" encoding="UTF-8"?>
<svg id="Layer_1" xmlns="http://www.w3.org/2000/svg" viewBox="0 0 60 60">
  <defs>
    <style>
      .cls-1 {
        fill: #231f20;
      }
    </style>
  </defs>
  <path class="cls-1" d="M57.95,38.46c-.11-.09-1.12-.86-2.82-.86-1.87,0-3.81.91-5.78,2.7q-3.95,3.61-8.69,4.04c-1.4.13-2.55.2-3.51.2-2.07,0-3.36-.29-4.07-.92-.33-.29-.74-.82-.9-2.15.48,0,1.07.02,1.72.02,7.88,0,11.39-1.13,11.39-3.67,0-5.8-8.78-5.8-11.66-5.8-.67,0-1.28.01-1.81.02-.36,0-.68.02-.92.02-2.8,0-10.04,1.01-15.81,2.83-.54.17-.91.67-.91,1.23v15.47c0,.58.39,1.08.94,1.24,2.84.82,8.17,1.79,17.45,1.79,14.48,0,20.66-2.33,26.42-9.97.27-.3,1.09-1.35.99-2.82-.08-1.25-.77-2.39-2.04-3.38ZM57.08,42.92s-.08.08-.11.13c-5.24,6.97-10.71,8.98-24.39,8.98-8.29,0-13.23-.81-15.8-1.44v-13.51c5.53-1.62,11.94-2.44,14.13-2.44.27,0,.6,0,.98-.01.5-.01,1.1-.02,1.75-.02,4.08,0,8.93.54,9.07,3.09-.27.22-1.83,1.19-8.8,1.19-1.73,0-3.02-.06-3.03-.06-.35-.03-.7.11-.96.35-.26.24-.41.58-.41.94,0,1.62.19,3.95,1.84,5.43,1.23,1.09,3.01,1.58,5.79,1.58,1.04,0,2.27-.07,3.75-.21,5.44-.5,5.73-.63,10.19-4.71,1.45-1.32,2.85-2.02,4.03-2.02.78,0,1.2.29,1.21.3.46.36,1.01.91,1.06,1.5.05.51-.32.93-.32.93Z"/>
  <path class="cls-1" d="M7.56,32.57h-3.64c-2.16,0-3.91,1.75-3.91,3.91v14.18c0,2.16,1.76,3.91,3.91,3.91h3.64c2.16,0,3.92-1.75,3.92-3.91v-14.18c0-2.16-1.76-3.91-3.92-3.91ZM8.88,50.67c0,.73-.6,1.32-1.33,1.32h-3.64c-.73,0-1.33-.59-1.33-1.32v-14.18c0-.73.6-1.33,1.33-1.33h3.64c.73,0,1.33.59,1.33,1.33v14.18Z"/>
  <g>
    <path class="cls-1" d="M34.85,27.5c-6.1,0-11.07-4.96-11.07-11.06s4.96-11.06,11.07-11.06,11.07,4.96,11.07,11.06-4.97,11.06-11.07,11.06ZM34.85,7.91c-4.71,0-8.54,3.82-8.54,8.54s3.83,8.53,8.54,8.53,8.53-3.83,8.53-8.53-3.82-8.54-8.53-8.54Z"/>
    <path class="cls-1" d="M34.2,21.84c-.41,0-.8-.2-1.03-.54l-3-4.27c-.4-.57-.27-1.36.3-1.76.57-.4,1.36-.26,1.76.31l1.83,2.61,3.24-5.95c.33-.62,1.1-.84,1.72-.5.61.33.84,1.1.51,1.72l-4.21,7.74c-.21.38-.6.63-1.04.66h-.08Z"/>
  </g>
</svg>