<?xml version="1.0" encoding="UTF-8"?>
<svg id="Layer_1" xmlns="http://www.w3.org/2000/svg" viewBox="0 0 60 60">
  <path d="M0,21.06c.08-.16.18-.31.23-.47.58-1.91,1.98-2.74,3.85-2.96.31-.04.62-.02.93-.02,12.84,0,25.68,0,38.52,0,.4,0,.8-.01,1.19.06.44.08.71.39.7.84,0,.45-.27.77-.71.84-.44.07-.88.06-1.33.06-12.71,0-25.42,0-38.12,0-.44,0-.89-.01-1.33.02-1.09.08-1.81.66-2.08,1.72-.12.47-.18.96-.18,1.44,0,9.86-.01,19.73,0,29.59,0,1.84.65,2.83,2.04,3.16.34.08.71.07,1.06.07,16.8,0,33.59,0,50.39,0,2.2,0,3.14-.94,3.14-3.18,0-9.91,0-19.82,0-29.73,0-.44-.06-.89-.17-1.31-.3-1.18-1.03-1.76-2.31-1.78-2.13-.03-4.27-.01-6.4-.01-.31,0-.62.02-.93,0-.79-.06-1.25-.42-1.23-.94.02-.48.45-.8,1.18-.85.27-.02.53,0,.8,0,1.82,0,3.64,0,5.47,0,3.1,0,4.11.66,5.29,3.44v32.8c-.35.6-.63,1.25-1.06,1.79-.93,1.17-2.22,1.45-3.68,1.45-16.84-.02-33.68-.01-50.52-.01-.22,0-.44,0-.67,0-1.73-.03-2.9-.93-3.68-2.41-.14-.26-.26-.54-.39-.81,0-10.93,0-21.87,0-32.8Z"/>
  <path d="M43.66,45.49c-1.87,0-3.73,0-5.6,0-.49,0-.98-.03-1.45-.13-1.14-.22-1.94-1.06-1.95-2.2-.04-3.06-.05-6.13,0-9.19.02-1.32,1.07-2.24,2.47-2.26,2.18-.03,4.35-.01,6.53-.01,2.18,0,4.35-.02,6.53,0,1.63.02,2.61.93,2.63,2.53.04,2.89.03,5.77,0,8.66-.02,1.43-.82,2.31-2.23,2.52-.44.07-.88.08-1.33.08-1.87,0-3.73,0-5.6,0ZM48.12,33.34c-.3.92.26,2.06-1.03,2.34-1.27-.31-.67-1.47-1.01-2.26h-4c0,.65,0,1.22,0,1.79-.02,2.06-.65,2.7-2.7,2.71-1,0-2.01,0-3.1,0,0,1.73-.02,3.28,0,4.82,0,.62.35.99,1,.99.34,0,.68-.05,1.04-.08.04-.65.08-1.22.11-1.72.54-.61,1.01-.61,1.52,0,.04.56.09,1.16.14,1.72h2.81c0-1.28-.02-2.48,0-3.67.03-1.47.7-2.2,2.18-2.3,1.02-.07,2.04-.02,3.06-.02.96,0,1.93,0,3.03,0,0-1.19.04-2.25-.01-3.3-.03-.69-.39-.98-1.14-1.01-.61-.03-1.23,0-1.9,0ZM50.71,43.7c.92-1.33.29-2.77.47-4.24-1.24,0-2.3,0-3.36,0-1.05,0-2.1,0-3.15.01v4.23h6.05ZM40.23,33.34c-.61,0-1.09.01-1.57,0-2.44-.09-2.47.11-2.37,2.56,0,.08.07.15.17.37h3.76v-2.92Z"/>
  <path d="M20.29,38.24c2.11,1.38,2.99,3.29,2.92,5.7-.04,1.24,0,2.49,0,3.73-.02,1.67-.78,2.48-2.41,2.5-2.35.02-4.71,0-7.06,0-.3,0-.6-.07-.87-.11-.46-1.14-.29-1.51.74-1.53,2.04-.04,4.09-.01,6.13-.01.48,0,.97,0,1.45,0,.12-.23.27-.38.27-.53,0-1.77.04-3.55-.09-5.31-.1-1.49-1-2.5-2.39-3.11-2.93,2-5.87,2.04-8.86,0-1.54.63-2.37,1.83-2.49,3.43-.12,1.63-.04,3.28-.03,4.92,0,.16.13.32.26.6.59,0,1.2-.03,1.81,0,.97.05,1.09.27.81,1.46-1,.34-2.07.25-3.1.08-.85-.14-1.46-1.02-1.48-1.99-.04-1.78-.11-3.56.02-5.33.15-1.91,1.14-3.42,2.89-4.51-1.25-2-1.77-4.14-1.01-6.43.5-1.51,1.39-2.75,2.74-3.66,2.87-1.93,6.32-1.57,8.72.56,2.68,2.38,3.04,5.71,1.04,9.51ZM14.48,28.6c-2.88.04-5.39,2.5-5.33,5.37.06,2.91,2.13,5.34,5.42,5.39,2.88.05,5.39-2.47,5.33-5.34-.07-3.34-2.58-5.32-5.41-5.42Z"/>
  <path d="M29.95,2.9c3.57-.02,6.66,1.21,9.34,3.53.2.17.49.35.54.57.08.35.11.81-.05,1.09-.23.38-.71.35-1.07.11-.33-.22-.61-.51-.92-.77-2.34-1.95-5.06-2.91-8.08-2.84-2.82.07-5.37,1.03-7.55,2.86-.31.26-.59.55-.92.76-.37.24-.83.23-1.07-.15-.15-.25-.16-.68-.06-.98.09-.26.39-.47.62-.67,2.64-2.29,5.71-3.49,9.22-3.5Z"/>
  <path d="M41.04,23.57c.48,1.09.32,1.42-.71,1.5-.27.02-.53,0-.8,0-6.35,0-12.71,0-19.06,0-.27,0-.53.01-.8,0-.96-.07-1.08-.29-.8-1.41.95-.3,20.66-.38,22.17-.09Z"/>
  <path d="M29.97,9.84c-1.73-.07-3.21.54-4.51,1.64-.73.62-1.25.7-1.61.29-.38-.44-.25-.94.47-1.57,3.21-2.83,8.13-2.82,11.33-.04.2.17.41.35.55.57.24.37.27.82-.11,1.07-.25.16-.66.17-.97.11-.23-.04-.42-.31-.62-.48-1.31-1.09-2.8-1.67-4.52-1.59Z"/>
  <path d="M27.58,15.17c-1.13-.65-1.19-1.02-.36-1.76,1.49-1.32,4.15-1.3,5.6.03.76.7.7,1.03-.21,1.65-.88-.33-1.71-.73-2.58-.94-1-.24-1.67.66-2.46,1.01Z"/>
</svg>