<?xml version="1.0" encoding="UTF-8"?>
<svg id="Layer_1" xmlns="http://www.w3.org/2000/svg" viewBox="0 0 60 60">
  <defs>
    <style>
      .cls-1 {
        fill: #231f20;
      }
    </style>
  </defs>
  <path class="cls-1" d="M7.12,27.59h-.04c-.89-.02-1.59-.76-1.57-1.65C5.97,9.02,14.22.46,30.02.46s23.73,8.23,24.47,24.47c.04.89-.64,1.64-1.53,1.69-.89.03-1.64-.65-1.68-1.54-.68-14.6-7.43-21.4-21.26-21.4S9.15,10.78,8.73,26.03c-.03.88-.74,1.57-1.61,1.57Z"/>
  <path class="cls-1" d="M51.55,28.75s0-.08,0-.12c-.02-.18-.04-.35-.05-.53,0,0,0-.02,0-.02-1.57-15.6-10-18.72-19.35-19.08h-.04c-.31-.02-.62-.02-.93-.03-.05,0-.09,0-.13-.01-.35,0-.69,0-1.04,0s-.69,0-1.03,0c-.04,0-.09.01-.13.01-.31,0-.61.01-.92.03h-.07c-8.99.36-17.12,3.26-19.12,17.37,0,.03-.01.06-.01.08-.07.48-.13.98-.19,1.49,0,.07-.02.15-.02.23-.02.13-.03.25-.04.38-.01.06-.02.12-.02.18,0,.01,0,.02,0,.03-.13,1.54-.21,3.19-.21,4.98,0,14.23,9.76,25.8,21.75,25.8s21.76-11.57,21.76-25.8c0-1.79-.08-3.44-.22-4.99ZM12.14,21.94s.03-.08.04-.12c.08-.25.16-.49.25-.73.07-.18.13-.36.21-.54.04-.1.08-.21.12-.31,2.84-6.76,8.45-8.68,16.03-8.86.04,0,.08,0,.12,0,.36,0,.71-.01,1.07-.01,4.87,0,8.96.59,12.11,2.55,3.41,2.17,5.96,6.17,6.87,13.45-2.97-.64-5.21-3.34-5.21-6.56,0-.42-.22-.81-.58-1.04-.19-.11-.41-.18-.63-.18-.19,0-.38.05-.56.13-6.62,3.4-17.39,3.4-24.01,0-.38-.19-.82-.18-1.18.04-.36.22-.58.61-.58,1.04,0,3.23-2.24,5.93-5.22,6.57.25-2.06.63-3.86,1.13-5.44ZM30,57.13c-10.66,0-19.34-10.49-19.34-23.39,0-1.38.05-2.66.12-3.87,3.84-.49,6.94-3.45,7.69-7.25,6.72,2.74,16.33,2.74,23.05,0,.76,3.81,3.85,6.76,7.69,7.25.08,1.21.12,2.49.12,3.87,0,12.9-8.67,23.39-19.34,23.39Z"/>
  <path class="cls-1" d="M8.17,43.13h-1.79c-2.31,0-4.18-1.88-4.18-4.18v-10.97c0-2.3,1.87-4.17,4.18-4.17h1.79c2.3,0,4.17,1.87,4.17,4.17v10.97c0,2.3-1.88,4.18-4.17,4.18ZM6.38,26.22c-.97,0-1.76.79-1.76,1.76v10.97c0,.97.79,1.76,1.76,1.76h1.79c.97,0,1.76-.79,1.76-1.76v-10.97c0-.97-.79-1.76-1.76-1.76h-1.79Z"/>
  <path class="cls-1" d="M53.63,43.13h-1.79c-2.3,0-4.17-1.88-4.17-4.18v-10.97c0-2.3,1.88-4.17,4.17-4.17h1.79c2.3,0,4.17,1.87,4.17,4.17v10.97c0,2.3-1.87,4.18-4.17,4.18ZM51.84,26.22c-.97,0-1.76.79-1.76,1.76v10.97c0,.97.79,1.76,1.76,1.76h1.79c.97,0,1.76-.79,1.76-1.76v-10.97c0-.97-.79-1.76-1.76-1.76h-1.79Z"/>
  <path class="cls-1" d="M53.63,43.13h-1.79c-.1,0-.21-.01-.31-.02v2.34c0,2.54-2.07,4.61-4.61,4.61h-14.74c-.66,0-1.21.54-1.21,1.21s.55,1.21,1.21,1.21h14.74c3.87,0,7.02-3.15,7.02-7.02v-2.34c-.1,0-.21.02-.31.02Z"/>
  <path class="cls-1" d="M5.78,43.13c-3.24,0-5.78-4.25-5.78-9.66s2.54-9.66,5.78-9.66c.66,0,1.21.54,1.21,1.21v16.91c0,.66-.54,1.21-1.21,1.21ZM4.57,26.78c-1.16,1.07-2.15,3.59-2.15,6.68s.99,5.61,2.15,6.68v-13.37Z"/>
  <path class="cls-1" d="M54.22,43.13c-.66,0-1.21-.54-1.21-1.21v-16.91c0-.67.54-1.21,1.21-1.21,3.24,0,5.78,4.24,5.78,9.66s-2.54,9.66-5.78,9.66ZM55.44,26.78v13.37c1.16-1.08,2.15-3.59,2.15-6.68s-.98-5.61-2.15-6.68Z"/>
  <path class="cls-1" d="M29.11,33.54l-4.42-4.41c-.07-.08-.15-.14-.25-.21-.04-.02-.08-.04-.12-.06-.05-.03-.1-.06-.16-.08-.05-.03-.1-.03-.15-.05-.05-.02-.09-.04-.14-.04-.21-.04-.42-.04-.63,0-.05,0-.09.03-.13.04-.06.02-.11.03-.16.05-.05.02-.1.05-.15.08-.04.02-.08.04-.12.06-.09.06-.17.13-.25.21l-4.41,4.41c-.63.63-.63,1.65,0,2.28.62.63,1.64.63,2.27,0l1.66-1.66v8.57c0,.89.72,1.61,1.61,1.61s1.61-.72,1.61-1.61v-8.57l1.66,1.66c.31.31.73.47,1.13.47s.83-.15,1.14-.47c.63-.63.63-1.65,0-2.28Z"/>
  <path class="cls-1" d="M42,37.17c-.63-.63-1.65-.63-2.28,0l-1.66,1.66v-8.57c0-.89-.72-1.61-1.61-1.61s-1.61.72-1.61,1.61v8.57l-1.67-1.66c-.63-.63-1.64-.63-2.28,0-.62.63-.62,1.65,0,2.28l4.42,4.42c.08.07.16.14.25.2.04.02.08.04.12.06.05.03.1.06.15.08.05.03.11.04.16.05.05.02.09.04.14.04.1.02.21.03.31.03s.21-.01.31-.03c.05,0,.09-.03.14-.04.05-.02.11-.03.16-.05.06-.02.1-.05.15-.08.04-.02.08-.04.12-.06.09-.06.17-.13.25-.2l4.41-4.42c.63-.63.63-1.65,0-2.28Z"/>
  <path class="cls-1" d="M30,54.76c-1.92,0-3.49-1.57-3.49-3.49s1.57-3.49,3.49-3.49,3.49,1.57,3.49,3.49-1.57,3.49-3.49,3.49ZM30,50.19c-.59,0-1.07.48-1.07,1.07s.48,1.08,1.07,1.08,1.08-.48,1.08-1.08-.48-1.07-1.08-1.07Z"/>
</svg>